<?xml version="1.0" encoding="utf-8"?>
<!-- Generator: Adobe Illustrator 25.3.1, SVG Export Plug-In . SVG Version: 6.00 Build 0)  -->
<svg version="1.1" id="圖層_1" xmlns="http://www.w3.org/2000/svg" xmlns:xlink="http://www.w3.org/1999/xlink" x="0px" y="0px"
	 viewBox="0 0 32 32" style="enable-background:new 0 0 32 32;" xml:space="preserve">
<style type="text/css">
	.st0{fill:#666666;}
	.st1{fill:#707070;}
	.st2{fill:#3385DE;}
	.st3{fill:#FDFAFA;}
	.st4{fill:#8DB9E7;}
	.st5{fill:#F8F8F8;}
	.st6{fill:#FCFBF9;}
	.st7{fill:#F3CFC6;}
	.st8{fill:#5F646E;}
	.st9{fill:#F0BC40;}
	.st10{fill:#F3E4C3;}
	.st11{fill:#ECCC83;}
	.st12{fill:#FEFEFE;}
	.st13{fill:#FDFDFC;}
	.st14{fill:#FAFBFB;}
	.st15{fill:#F0F1F1;}
</style>
<g>
	<path class="st0" d="M18.26,19.48c1.25-0.7,2.18-1.67,2.79-2.92c0.25-0.51,0.44-1.05,0.54-1.61c-0.3,0.31-0.62,0.61-0.99,0.83
		c-0.37,0.23-0.77,0.4-1.22,0.51c0.12-0.13,0.23-0.24,0.33-0.36c0.6-0.67,0.97-1.45,1.11-2.33c0.22-1.43-0.1-2.73-1.03-3.86
		c-0.28-0.34-0.62-0.61-0.97-0.88c-0.89-0.66-1.64-1.45-2.12-2.47c-0.32-0.68-0.47-1.4-0.43-2.16c0.02-0.36,0.08-0.71,0.2-1.09
		c-1.1,0.82-1.95,1.8-2.57,2.99c-0.62,1.18-0.96,2.43-1.02,3.77c-0.06,1.34,0.18,2.62,0.7,3.88c-1.24-0.63-1.99-1.62-2.3-2.98
		c-0.72,1.61-0.83,3.23-0.3,4.88c0.53,1.64,1.57,2.89,3.07,3.77c-1.36-0.33-2.58-0.95-3.63-1.87c-1.74-1.52-2.77-3.42-3.03-5.72
		c-0.57-5.18,3.22-9.3,7.73-9.83c5.08-0.59,9.19,2.99,9.86,7.45C25.71,14.53,22.29,18.55,18.26,19.48z"/>
	<path class="st1" d="M17.8,17.32c-0.23,0.59-0.94,1.03-1.62,1.03c-0.67,0-1.37-0.45-1.6-1.03c0.26,0.01,0.49-0.08,0.73-0.15
		c0.29-0.08,0.56-0.02,0.81,0.15c0.05,0.04,0.09,0.04,0.15,0c0.3-0.2,0.62-0.24,0.96-0.11C17.4,17.29,17.59,17.33,17.8,17.32z"/>
	<path class="st1" d="M23.22,19.18c0-0.07,0-0.14,0-0.21c0-0.13,0.03-0.16,0.15-0.1c0.12,0.06,0.21,0.09,0.34,0
		c0.1-0.07,0.15-0.03,0.15,0.1c0,0.15,0,0.3,0,0.45c0,0.03,0.01,0.08-0.04,0.08c-0.05,0-0.04-0.04-0.04-0.07c0-0.14,0-0.29,0-0.43
		c0-0.07-0.03-0.07-0.08-0.05c-0.07,0.03-0.1,0.08-0.11,0.15c-0.01,0.03,0,0.07,0,0.1c-0.01,0.04,0.02,0.1-0.04,0.1
		c-0.05,0-0.03-0.06-0.04-0.09c-0.01-0.04-0.01-0.09-0.02-0.13c-0.01-0.05-0.04-0.08-0.08-0.11c-0.02-0.02-0.05-0.03-0.08-0.02
		c-0.03,0.01-0.02,0.05-0.02,0.08c0,0.12,0,0.25,0,0.37c0,0.04,0.03,0.12-0.05,0.12c-0.07,0-0.04-0.08-0.04-0.12
		C23.22,19.31,23.22,19.24,23.22,19.18z"/>
	<path class="st1" d="M22.83,19.21c0-0.05,0-0.1,0-0.15c0-0.09,0.01-0.17-0.12-0.15c-0.02,0-0.04,0-0.04-0.03
		c0-0.03,0.02-0.04,0.05-0.04c0.1,0,0.2,0,0.31,0c0.02,0,0.05,0,0.05,0.03c0,0.03-0.03,0.04-0.05,0.04
		c-0.12-0.02-0.12,0.06-0.12,0.14c0,0.11,0,0.21,0,0.32c0,0.04,0.03,0.12-0.04,0.12c-0.06,0-0.03-0.07-0.03-0.11
		C22.82,19.33,22.83,19.27,22.83,19.21z"/>
	<g>
		<path class="st2" d="M21.82,22.76c0.19,0,0.36,0,0.53,0c0.05,0,0.06,0.01,0.06,0.06c0,0.15,0,0.15-0.15,0.15
			c-0.27,0-0.54,0-0.81,0c-0.02,0-0.04,0-0.08,0c0.06-0.08,0.12-0.15,0.18-0.22c0.16-0.2,0.33-0.41,0.49-0.61
			c0.05-0.06,0.08-0.12,0.09-0.19c0.01-0.11-0.04-0.2-0.14-0.24c-0.1-0.05-0.23-0.02-0.31,0.06c-0.07,0.07-0.08,0.18-0.03,0.27
			c0.02,0.03,0.06,0.06,0.06,0.09c-0.01,0.04-0.05,0.07-0.07,0.1c-0.05,0.07-0.05,0.07-0.11,0c-0.12-0.13-0.17-0.29-0.1-0.46
			c0.07-0.18,0.21-0.27,0.39-0.29c0.21-0.02,0.38,0.05,0.49,0.24c0.07,0.13,0.06,0.26,0,0.39c-0.04,0.08-0.09,0.14-0.14,0.21
			C22.06,22.46,21.94,22.61,21.82,22.76z"/>
		<path class="st2" d="M17.75,22.29c-0.16-0.12-0.23-0.31-0.18-0.49c0.05-0.17,0.23-0.31,0.41-0.32c0.13-0.01,0.25,0.02,0.35,0.09
			c0.17,0.13,0.23,0.35,0.13,0.54c-0.06,0.11-0.14,0.21-0.22,0.31c-0.09,0.11-0.18,0.22-0.28,0.35c0.15,0,0.3,0,0.44,0
			c0.16,0,0.16,0,0.16,0.17c0,0.03,0,0.05-0.04,0.05c-0.32,0-0.65,0-0.97,0c-0.01,0-0.01,0-0.02-0.01c0.09-0.12,0.19-0.23,0.28-0.35
			c0.13-0.16,0.26-0.32,0.38-0.48c0.06-0.07,0.1-0.16,0.09-0.26c-0.02-0.1-0.09-0.17-0.18-0.19c-0.11-0.02-0.2,0-0.27,0.09
			c-0.06,0.07-0.07,0.19,0,0.26c0.06,0.07,0.04,0.12-0.01,0.17C17.79,22.24,17.77,22.26,17.75,22.29z"/>
		<path class="st2" d="M16.2,21.91c-0.01,0-0.02,0-0.03,0c-0.05,0.01-0.09,0-0.1-0.07c-0.01-0.09-0.08-0.14-0.17-0.15
			c-0.09-0.02-0.18,0-0.24,0.08c-0.06,0.07-0.05,0.17,0.02,0.24c0.05,0.05,0.12,0.08,0.18,0.1c0.09,0.03,0.17,0.06,0.25,0.1
			c0.16,0.09,0.24,0.22,0.22,0.4c-0.02,0.17-0.11,0.29-0.27,0.35c-0.2,0.07-0.39,0.05-0.56-0.09c-0.09-0.08-0.13-0.18-0.14-0.29
			c0-0.03,0.01-0.04,0.04-0.04c0.02,0,0.04,0,0.07,0c0.07-0.01,0.12,0,0.14,0.09c0.02,0.11,0.15,0.17,0.28,0.16
			c0.11-0.01,0.19-0.07,0.21-0.16c0.02-0.09-0.01-0.15-0.08-0.21c-0.06-0.05-0.14-0.07-0.21-0.1c-0.07-0.03-0.13-0.05-0.2-0.08
			c-0.15-0.08-0.24-0.2-0.22-0.37c0.01-0.17,0.11-0.28,0.26-0.35c0.26-0.11,0.56,0.01,0.64,0.26C16.34,21.91,16.34,21.91,16.2,21.91
			z"/>
		<path class="st2" d="M23.81,22.39c0-0.16,0-0.3,0-0.44c0-0.04,0.01-0.06,0.05-0.06c0.17,0,0.17,0,0.17,0.16c0,0.29,0,0.58,0,0.86
			c0,0.04-0.01,0.06-0.06,0.06c-0.05-0.01-0.12,0.02-0.15-0.01c-0.03-0.03-0.01-0.09-0.01-0.14c0-0.14-0.06-0.22-0.18-0.28
			c-0.1-0.04-0.2-0.07-0.29-0.12c-0.14-0.08-0.22-0.19-0.24-0.35c-0.02-0.18-0.01-0.36-0.01-0.54c0-0.03,0.01-0.04,0.04-0.04
			c0.05,0,0.1,0,0.15,0c0.04,0,0.04,0.01,0.04,0.05c0,0.14,0,0.27,0,0.41c0,0.15,0.06,0.26,0.21,0.31
			C23.62,22.3,23.71,22.33,23.81,22.39z"/>
		<path class="st2" d="M14.67,22.39c0,0.18,0,0.35,0,0.53c0,0.04-0.01,0.06-0.05,0.06c-0.06,0-0.13,0.02-0.16-0.01
			c-0.04-0.03-0.01-0.11-0.01-0.16c0-0.31,0-0.61,0-0.92c0-0.04,0.01-0.06,0.05-0.07c0.18-0.04,0.18-0.04,0.18,0.14
			C14.67,22.1,14.67,22.25,14.67,22.39z"/>
		<path class="st2" d="M14.45,21.7c0-0.01,0-0.01,0-0.02c-0.01-0.19-0.01-0.19,0.19-0.18c0.03,0,0.04,0.01,0.04,0.04
			c0.01,0.12,0.01,0.12-0.11,0.14C14.53,21.69,14.49,21.69,14.45,21.7z"/>
		<path class="st2" d="M19.95,21.48c-0.43,0-0.77,0.34-0.77,0.77c0,0.41,0.35,0.75,0.77,0.75c0.44,0,0.78-0.33,0.78-0.76
			C20.73,21.81,20.39,21.47,19.95,21.48z M19.95,22.78c-0.29,0-0.53-0.25-0.53-0.54c0-0.3,0.24-0.55,0.54-0.55
			c0.3,0,0.54,0.25,0.53,0.55C20.49,22.54,20.25,22.79,19.95,22.78z"/>
		<path class="st2" d="M13.73,22.79c0-0.02,0-0.03-0.01-0.05c-0.04-0.17-0.14-0.28-0.32-0.35c0.12-0.07,0.21-0.15,0.25-0.27
			c0.09-0.28-0.07-0.55-0.36-0.6c-0.18-0.03-0.36-0.01-0.54-0.02c-0.06,0-0.07,0.01-0.07,0.07c0,0.43,0,0.85,0,1.28
			c0,0.13,0,0.13,0.13,0.13c0.1,0,0.1,0,0.1-0.09c0-0.02,0-0.04,0-0.06c0.01-0.15,0.13-0.26,0.28-0.27c0.15-0.01,0.27,0.09,0.3,0.24
			c0.01,0.05,0.01,0.1,0.01,0.14c0,0.02,0,0.03,0.03,0.04C13.72,23,13.74,22.98,13.73,22.79z M13.36,22.18
			c-0.05,0.04-0.11,0.07-0.17,0.1c-0.09,0.05-0.19,0.09-0.28,0.17c0-0.24,0-0.47,0-0.7c0-0.02,0-0.04,0.03-0.04
			c0.1,0.01,0.2-0.01,0.3,0.01c0.1,0.03,0.17,0.08,0.2,0.19C13.47,22.02,13.44,22.11,13.36,22.18z"/>
		<path class="st2" d="M11.92,22.43C11.92,22.43,11.92,22.43,11.92,22.43c0-0.16,0-0.33,0-0.49c-0.01-0.19-0.09-0.34-0.26-0.42
			c-0.29-0.14-0.72,0-0.73,0.45c0,0.27,0,0.55,0,0.82c0,0.06-0.02,0.13,0.01,0.16c0.04,0.03,0.11,0.01,0.17,0.01
			c0.04,0,0.05-0.01,0.05-0.05c0-0.09,0-0.19,0-0.28c0-0.18,0-0.18,0.19-0.16c0.17,0.02,0.3,0.12,0.34,0.27
			c0.01,0.06,0.02,0.11,0.02,0.17c0,0.04,0.01,0.06,0.05,0.05c0.04,0,0.08,0,0.12,0c0.04,0,0.05-0.01,0.05-0.05
			C11.92,22.76,11.92,22.6,11.92,22.43z M11.7,22.43c-0.15-0.14-0.32-0.19-0.5-0.17c-0.04,0-0.04-0.02-0.04-0.04
			c0-0.08,0-0.17,0-0.25c0.01-0.17,0.11-0.27,0.27-0.27c0.16,0,0.27,0.11,0.27,0.28C11.7,22.12,11.7,22.27,11.7,22.43z"/>
		<path class="st2" d="M10.25,21.88c-0.04-0.19-0.18-0.33-0.38-0.36C9.68,21.48,9.5,21.5,9.31,21.5c-0.05,0-0.06,0.01-0.06,0.06
			c0,0.22,0,0.45,0,0.67c0,0.23,0,0.46,0,0.69c0,0.04,0.01,0.06,0.05,0.05c0.05,0,0.09,0,0.14,0c0.03,0,0.05-0.01,0.04-0.04
			c-0.02-0.21,0.09-0.33,0.27-0.41c0.09-0.04,0.19-0.09,0.28-0.14C10.21,22.27,10.29,22.08,10.25,21.88z M9.94,22.17
			c-0.04,0.04-0.09,0.07-0.13,0.09c-0.11,0.06-0.22,0.11-0.32,0.19c0-0.24,0-0.47,0-0.69c0-0.04,0.01-0.05,0.05-0.05
			c0.1,0.01,0.2-0.01,0.29,0.01c0.1,0.02,0.17,0.08,0.19,0.18C10.04,22,10.02,22.1,9.94,22.17z"/>
	</g>
</g>
<g>
	<path class="st0" d="M16.37,25.03c0.08,0,0.16-0.01,0.22,0.04c-0.01,0.02-0.03,0.03-0.05,0.03c0.05,0,0.09,0.01,0.14-0.01
		c0.16,0.05,0.32,0.1,0.48,0.14c0.08,0.06,0.21,0.05,0.26,0.16c0.54,0.4,0.92,0.91,1.05,1.58c0.01,0.08,0.09,0.21-0.05,0.24
		c-0.12,0.03-0.29,0.07-0.32-0.14c-0.07-0.06-0.08-0.15-0.1-0.23c-0.01-0.08-0.04-0.15-0.08-0.23c-0.04-0.08-0.08-0.16-0.13-0.23
		c-0.01-0.02-0.03-0.04-0.04-0.06c-0.05-0.09-0.1-0.17-0.19-0.22c-0.07-0.05-0.11-0.12-0.16-0.18c-0.06-0.09-0.15-0.14-0.24-0.19
		c-0.06-0.05-0.14-0.08-0.22-0.09c-0.09-0.03-0.18-0.08-0.27-0.11c-0.13-0.05-0.26-0.07-0.4-0.1c-0.12-0.04-0.24-0.04-0.37,0
		c-0.06,0.01-0.12,0.02-0.19,0.03c-0.11,0.01-0.21,0.04-0.32,0.07c-0.08,0.02-0.15,0.05-0.22,0.1c-0.07,0.03-0.15,0.06-0.2,0.12
		c-0.07,0.06-0.15,0.11-0.19,0.2c-0.04,0.08-0.11,0.12-0.18,0.17c-0.08,0.05-0.13,0.13-0.18,0.2c-0.05,0.06-0.1,0.12-0.12,0.2
		c-0.04,0.12-0.17,0.21-0.11,0.36c0.01,0.05-0.01,0.09-0.03,0.13c-0.03,0.05-0.05,0.1-0.07,0.16c-0.02,0.19-0.06,0.38,0.03,0.56
		c0.05,0.1-0.01,0.21,0.03,0.31c0.02,0.09,0.06,0.16,0.13,0.23c0.01,0.02,0.02,0.04,0.03,0.06c0.01,0.08,0.06,0.14,0.12,0.19
		c0.01,0.02,0.03,0.04,0.03,0.06c0.03,0.08,0.07,0.16,0.15,0.21c0.19,0.14,0.37,0.29,0.57,0.41c0.11,0.12,0.24,0.16,0.4,0.15
		c0.02,0,0.05,0.01,0.07,0.02c0.07,0.05,0.16,0.05,0.24,0.05c0.13,0,0.26,0,0.39,0c0.08,0,0.15,0,0.23-0.02
		c0.05-0.01,0.1-0.02,0.14-0.02c0.15-0.03,0.27-0.12,0.38-0.22c0.05-0.04,0.1-0.06,0.15-0.08c0.08-0.03,0.16-0.07,0.19-0.16
		c0.01-0.02,0.02-0.04,0.04-0.05l-0.01,0c0.13-0.12,0.24-0.25,0.35-0.38c0.09-0.07,0.14-0.17,0.17-0.28
		c0.05-0.11,0.03-0.24,0.09-0.35c0.01-0.01,0.02-0.02,0.03-0.02c0.12-0.04,0.02-0.2,0.12-0.23c0.09-0.03,0.2-0.03,0.28-0.01
		c0.1,0.03,0.04,0.14,0.03,0.2c-0.1,0.73-0.47,1.3-1.09,1.71c-0.09,0.06-0.19,0.12-0.29,0.18c-0.24,0.08-0.48,0.19-0.74,0.19
		c-0.19-0.03-0.38-0.03-0.57,0c-0.36-0.01-0.67-0.17-0.98-0.31c-0.41-0.13-0.66-0.45-0.87-0.79c-0.68-1.08-0.39-2.57,0.65-3.32
		c0.14-0.1,0.31-0.16,0.47-0.23c0.14-0.04,0.28-0.07,0.42-0.11c0.02,0.02,0.04,0.02,0.07,0.02c0.02,0,0.04,0.01,0.06,0
		c-0.02,0-0.03-0.01-0.04-0.03c0.07-0.06,0.15-0.04,0.22-0.04C15.99,25.07,16.18,25.07,16.37,25.03z"/>
	<path class="st0" d="M23.7,28.48c-0.18-0.19-0.2-0.42-0.15-0.67c-0.03-0.07,0.01-0.1,0.06-0.13c0.09-0.3,0.1-0.61,0.03-0.92
		c-0.01-0.03-0.03-0.07-0.02-0.1c0.07-0.4-0.3-0.43-0.51-0.59c-0.11-0.08-0.19,0.03-0.19,0.13c-0.01,0.18-0.18,0.2-0.27,0.31
		c-0.01,0.01-0.05,0.01-0.07,0c-0.04-0.02-0.04-0.07-0.03-0.11c0.02-0.27,0.22-0.43,0.39-0.59c0.42-0.37,0.7-0.28,0.81,0.27
		c0.05,0.23,0.03,0.5,0.08,0.72c0.07,0.34,0.04,0.66,0.06,0.99c0.02,0.28,0.06,0.57,0.06,0.85c0,0.07,0.02,0.16,0.11,0.21
		c0.11-0.15,0.22-0.29,0.31-0.44c0.37-0.61,0.82-1.16,1.14-1.8c0.08-0.17,0.19-0.3,0.31-0.44c0.07-0.08,0.17-0.15,0.27-0.1
		c0.11,0.05,0.07,0.17,0.05,0.26c-0.11,0.71-0.15,1.42-0.07,2.13c0.02,0.17-0.08,0.36,0.06,0.52c0.04,0.04-0.01,0.08-0.05,0.09
		c-0.1,0.03-0.12-0.03-0.13-0.11c-0.05-0.31-0.1-0.63-0.15-0.94c-0.02-0.14,0-0.29-0.13-0.42c-0.08-0.07-0.09-0.23-0.03-0.36
		c0.02-0.05,0.02-0.15-0.05-0.18c-0.1-0.04-0.1,0.07-0.14,0.12c-0.35,0.54-0.68,1.09-1.08,1.6c-0.17,0.22-0.39,0.4-0.64,0.52
		c-0.1,0.05-0.19,0.09-0.15-0.1c0.04-0.18-0.07-0.35-0.08-0.54c-0.01-0.1-0.01-0.17,0.08-0.22c0.13,0.06,0.05,0.19,0.1,0.31
		c0,0.01,0.04-0.04,0.01-0.02c-0.01,0.01-0.02,0-0.02-0.01C23.69,28.66,23.68,28.57,23.7,28.48z"/>
	<path class="st2" d="M16.78,26.91c0.07-0.15,0.19-0.01,0.27-0.05c0.07-0.05,0.02-0.17,0.1-0.22c0.47,0.58,0.35,1.44-0.28,1.89
		c-0.62,0.45-1.53,0.3-1.92-0.31c-0.01-0.01,0-0.03,0-0.05c0.03-0.09,0.09-0.16,0.12-0.25c0.12-0.29,0.31-0.54,0.45-0.82
		c0.07-0.16,0.15-0.18,0.28-0.02c0.17,0.21,0.26,0.49,0.5,0.66c0.21,0.14,0.23,0.15,0.3-0.11c0.05-0.18,0.09-0.37,0.11-0.56
		C16.72,27,16.72,26.94,16.78,26.91z"/>
	<path class="st0" d="M29,25.34c-0.22,0.12-0.39,0.31-0.67,0.32c-0.17,0-0.31,0.18-0.32,0.37c-0.02,0.33-0.16,0.66,0.02,0.99
		c0.07,0.14-0.12,0.26-0.04,0.42c0.05,0.11-0.03,0.24,0.1,0.36c0.06,0.05,0,0.25-0.02,0.39c-0.03,0.22,0.02,0.44,0.04,0.67
		c0.04,0.38-0.14,0.63-0.44,0.86c-0.24,0.18-0.5,0.22-0.77,0.25c-0.1,0.01-0.17-0.04-0.17-0.12c0-0.08,0.09-0.06,0.16-0.07
		c0.22-0.04,0.43-0.1,0.64-0.17c0.3-0.09,0.19-0.36,0.19-0.53c-0.01-0.5-0.06-1-0.17-1.49c-0.03-0.14,0.02-0.31-0.02-0.45
		c-0.03-0.09-0.02-0.21-0.07-0.28c-0.19-0.26-0.02-0.49,0.08-0.7c0.13-0.26,0.32-0.49,0.56-0.64C28.37,25.35,28.68,25.31,29,25.34z"
		/>
	<path class="st2" d="M14.85,28.07c-0.34-0.81-0.04-1.59,0.72-1.89c0.09-0.04,0.18-0.07,0.28-0.05c0.02,0.02,0.03,0.04,0.02,0.07
		c-0.24,0.48-0.45,0.97-0.66,1.45c-0.04,0.09-0.07,0.18-0.13,0.26C15.02,27.99,15,28.12,14.85,28.07z"/>
	<path class="st3" d="M15.05,27.89c0.17-0.37,0.29-0.76,0.51-1.11c0.11-0.18,0.09-0.45,0.29-0.61c0.03-0.03,0.07-0.03,0.11-0.01
		c0.02,0.02,0.03,0.04,0.04,0.06c0.02,0.09,0.02,0.17,0.02,0.26c-0.06,0.31,0.02,0.59,0.21,0.84c0.05,0.05,0.08,0.11,0.15,0.14
		c0.12-0.13,0.14-0.31,0.17-0.47c0.03-0.16,0.04-0.17,0.19-0.23c0,0.05-0.01,0.11,0.04,0.14c0.03,0.32-0.11,0.61-0.15,0.92
		c-0.02,0.15-0.17,0.15-0.27,0.07c-0.29-0.24-0.48-0.56-0.69-0.91c-0.19,0.33-0.38,0.65-0.56,0.97
		C15.06,27.96,15.03,27.95,15.05,27.89z"/>
	<path class="st2" d="M16.21,27.4c-0.23-0.26-0.35-0.56-0.25-0.91c0.03-0.1,0.04-0.21-0.01-0.31v0c0.07-0.14,0.18-0.07,0.27-0.06
		c0.17,0.04,0.34,0.07,0.49,0.16c0.12,0.07,0.23,0.12,0.08,0.27c-0.06,0.06-0.03,0.15-0.05,0.22c-0.22,0.15-0.07,0.43-0.23,0.61
		c-0.04,0.05-0.09,0.12-0.11,0.2c-0.01,0-0.02,0-0.02-0.01c-0.01-0.01-0.01-0.01-0.01-0.02C16.33,27.48,16.31,27.4,16.21,27.4z"/>
	<path class="st0" d="M23.61,27.69c-0.02,0.04-0.04,0.08-0.06,0.13c-0.09-0.14-0.05-0.28-0.06-0.47
		C23.61,27.46,23.63,27.57,23.61,27.69z"/>
	<path class="st4" d="M17.16,26.64c-0.02,0.08,0.04,0.2-0.1,0.22c0.01-0.08,0-0.16,0.02-0.23C17.11,26.53,17.14,26.6,17.16,26.64z"
		/>
	<path class="st0" d="M23.53,26.98c0.04,0.08,0.11,0.15,0.01,0.23c-0.02,0.01-0.07,0.01-0.07,0.01
		C23.45,27.12,23.45,27.04,23.53,26.98z"/>
	<path class="st5" d="M18,27.11c0.02-0.07-0.03-0.14-0.05-0.2c0.03-0.03-0.01-0.13,0.09-0.1c0.02,0.09,0.04,0.17,0.05,0.26
		c-0.02,0.02-0.04,0.04-0.05,0.06C18.02,27.15,18.01,27.14,18,27.11z"/>
	<path class="st1" d="M9.66,28.69c0.15,0,0.22,0.05,0.16,0.21c-0.07,0-0.11-0.04-0.14-0.1c-0.03,0-0.05-0.01-0.05-0.04
		C9.64,28.73,9.64,28.71,9.66,28.69z"/>
	<path class="st1" d="M9.66,28.74c0.01,0.02,0.02,0.04,0.02,0.06c-0.13,0.1-0.24,0.01-0.34-0.05c0.02,0,0.03,0,0.05,0
		C9.48,28.68,9.57,28.68,9.66,28.74z"/>
	<path class="st6" d="M17.42,25.39c-0.09-0.05-0.18-0.1-0.26-0.16c0.14-0.03,0.26,0.03,0.37,0.11
		C17.49,25.34,17.45,25.35,17.42,25.39z"/>
	<path class="st0" d="M23.44,26.46c0.05,0.03,0.12,0.04,0.1,0.12c-0.01,0.02-0.05,0.06-0.07,0.05c-0.06-0.02-0.11-0.06-0.1-0.13
		C23.37,26.47,23.4,26.45,23.44,26.46z"/>
	<path class="st7" d="M10.35,29.04c-0.11-0.07-0.11-0.2-0.16-0.3c0.02,0,0.04,0,0.06,0c0.03,0.05,0.06,0.1,0.1,0.15
		C10.35,28.94,10.35,28.99,10.35,29.04z"/>
	<path class="st4" d="M16.23,26.12c-0.09,0.02-0.2-0.03-0.27,0.06c-0.04,0-0.07,0-0.11,0c0-0.01,0-0.03,0-0.04
		C15.97,26.07,16.1,26.07,16.23,26.12z"/>
	<path class="st0" d="M23.7,28.48c-0.01,0.11,0.05,0.23,0,0.36c-0.06-0.13-0.01-0.26-0.09-0.36C23.64,28.48,23.67,28.48,23.7,28.48z
		"/>
	<path class="st4" d="M20.52,27.49c-0.01,0.06-0.01,0.12-0.02,0.23c-0.06-0.09-0.03-0.21-0.14-0.19
		C20.4,27.46,20.46,27.49,20.52,27.49z"/>
	<path class="st1" d="M9.86,28.88c0.08-0.03,0.09,0.03,0.12,0.08c-0.02,0.05-0.05,0.07-0.1,0.03C9.84,28.97,9.84,28.92,9.86,28.88z"
		/>
	<path class="st8" d="M16.37,25.03c-0.19,0.08-0.38,0.08-0.57,0C15.99,25.03,16.18,25.03,16.37,25.03z"/>
	<path class="st8" d="M15.8,29.84c0.19-0.07,0.38-0.07,0.57,0C16.18,29.84,15.99,29.84,15.8,29.84z"/>
	<path class="st9" d="M21.55,29.93c0,0.04-0.03,0.07-0.07,0.05c-0.03-0.01-0.05-0.05-0.06-0.07c-0.01-0.04,0.03-0.05,0.07-0.05
		C21.54,29.86,21.55,29.89,21.55,29.93z"/>
	<path class="st10" d="M19.76,25.38c-0.12-0.11-0.08-0.2-0.04-0.29C19.73,25.17,19.74,25.25,19.76,25.38z"/>
	<path class="st11" d="M22,29.34c0.06,0.06,0.1,0.11,0.07,0.15c-0.06,0.06-0.08,0-0.08-0.05C21.98,29.41,21.99,29.39,22,29.34z"/>
	<path class="st2" d="M22.27,28.66c-0.02-0.08-0.07-0.19-0.03-0.27c0.09-0.2,0.02-0.32-0.16-0.38c-0.19-0.06-0.13-0.3-0.3-0.36
		c-0.01,0-0.02,0-0.03,0c-0.18,0.12-0.21-0.03-0.27-0.15c-0.03-0.06-0.03-0.17-0.14-0.16c-0.09,0.01-0.13,0.08-0.15,0.16
		c-0.03,0.13-0.07,0.17-0.22,0.1c-0.14-0.07-0.31-0.07-0.46-0.1c0,0.1-0.05,0.05-0.1,0.03c-0.02-0.01-0.05,0-0.07,0.01
		c-0.18,0.2-0.18,0.2-0.39,0.03c-0.02-0.01-0.05-0.02-0.07-0.01c-0.1,0.08-0.21,0.15-0.3,0.24c-0.03,0.03-0.05,0.09-0.02,0.14
		c0.02,0.03,0.06,0.04,0.09,0.02c0.25-0.16,0.52-0.01,0.78-0.03c0.14-0.01,0.21,0.13,0.22,0.22c0.01,0.13,0.05,0.36-0.06,0.39
		c-0.3,0.09-0.46,0.45-0.82,0.38c-0.08-0.02-0.11,0.05-0.13,0.1c-0.07,0.14-0.18,0.23-0.32,0.29c-0.07,0.03-0.15,0.06-0.15,0.16
		c0,0.15-0.1,0.13-0.17,0.08c-0.2-0.15-0.39-0.09-0.59-0.01c-0.08,0.03-0.16,0.09-0.27,0.02c-0.09-0.06-0.18,0.02-0.25,0.08
		c-0.08,0.07,0.01,0.11,0.04,0.17c0.06,0.11,0,0.23-0.06,0.32c-0.08,0.11-0.19-0.01-0.29-0.01c-0.08,0-0.02-0.13-0.03-0.2
		c-0.01-0.08,0.02-0.17-0.03-0.27c-0.13,0.08-0.25,0.15-0.38,0.24c0-0.09-0.01-0.15-0.01-0.22c-0.08-0.07-0.16-0.01-0.24,0.01
		c-0.17,0.05-0.35,0.11-0.53,0.11c-0.17,0-0.34,0-0.52,0c-0.37,0.01-0.67-0.2-1.01-0.3c-0.02,0-0.04,0-0.06,0
		c0.02,0.02,0.04,0.03,0.06,0.05c-0.25,0.05-0.49,0.01-0.73-0.07c-0.12-0.04-0.12-0.26-0.3-0.18c-0.21-0.3-0.6-0.17-0.85-0.37
		c-0.02-0.01-0.03-0.03-0.05-0.04c-0.01,0-0.03-0.01-0.04-0.01c-0.37,0.1-0.53-0.26-0.81-0.36c-0.19-0.07-0.32-0.27-0.56-0.25
		c-0.03,0-0.08-0.06-0.11-0.09c-0.1-0.12-0.23-0.2-0.39-0.25l0,0l0,0c-0.06-0.02-0.13-0.04-0.17-0.1c0,0,0,0,0,0c0,0,0,0,0,0
		c-0.07,0-0.1-0.05-0.14-0.1c-0.04-0.04-0.07-0.08-0.02-0.14c0.02-0.02,0.06-0.05,0.08-0.05c0.06,0.02,0.04,0.08,0.05,0.13
		c0.01,0.05,0.02,0.1,0.03,0.15c0,0,0,0,0,0c0.06,0.01,0.11-0.02,0.16-0.05c0.78-1.18,1.8-2.03,3.21-2.36
		c0.29-0.07,0.58-0.2,0.89-0.2c-0.04,0.03-0.08,0.05-0.12,0.08c0.04-0.01,0.08-0.02,0.12-0.02c0.14-0.01,0.28-0.07,0.42-0.1
		c0.04-0.01,0.08-0.02,0.11-0.03c0.08-0.03,0.16-0.02,0.24-0.02c0.17,0,0.33,0,0.5,0c0.08,0,0.16,0,0.23,0.02
		c0.04,0.01,0.07,0.02,0.11,0.03c0.16,0.03,0.31,0.1,0.48,0.14c0.12,0.04,0.25,0.01,0.37,0.05c0.19,0.07,0.38,0.13,0.58,0.14
		c0.07,0,0.18-0.01,0.2,0.09c0.04,0.26,0.24,0.2,0.4,0.21c0.17,0,0.34,0,0.51,0.03c0.52,0.06,0.92,0.42,1.42,0.53
		c0.06,0.01,0.14,0.04,0.16,0.08c0.11,0.24,0.35,0.31,0.55,0.43c0.22,0.14,0.4,0.12,0.57-0.06c0.27-0.3,0.28-0.38,0.06-0.63
		c-0.08-0.09-0.17-0.17-0.27-0.25c-0.42-0.35-0.87-0.64-1.32-0.94c-0.16-0.11-0.31-0.15-0.49-0.05c-0.14,0.07-0.24,0.06-0.25-0.14
		c0-0.12-0.1-0.2-0.19-0.23c-0.43-0.15-0.88-0.19-1.33-0.14c-0.17,0.02-0.3,0.15-0.42-0.07c-0.03-0.06-0.17-0.12-0.23-0.1
		c-0.23,0.07-0.43-0.08-0.63-0.13c-0.31-0.07-0.54-0.01-0.76,0.17c-0.07,0.06-0.11,0.03-0.18,0.02c-0.26-0.04-0.49-0.2-0.78-0.16
		c-0.37,0.05-0.75,0.08-1.12,0.11c-0.06,0.01-0.14,0.01-0.17,0.05c-0.17,0.16-0.35,0.2-0.57,0.13c-0.14-0.04-0.12,0.13-0.19,0.19
		c-0.04-0.1-0.08-0.25-0.21-0.12c-0.13,0.13-0.26,0.22-0.42,0.31c-0.22,0.13-0.38,0.36-0.6,0.52c-0.12,0.09-0.28,0.08-0.37,0.2
		c-0.11,0.15-0.2,0.32-0.33,0.45c-0.21,0.21-0.37,0.53-0.76,0.44c-0.04,0.16-0.03,0.32,0.01,0.47c-0.14-0.12-0.26-0.26-0.39-0.38
		c-0.05-0.05-0.1-0.15-0.19-0.05c-0.07,0.07-0.11,0.15-0.05,0.23c0.1,0.13,0.15,0.29,0.27,0.41c0.31,0.31,0.3,0.4-0.04,0.63
		c-0.15,0.1-0.05,0.17-0.02,0.25c0.08,0.25,0.34,0.45,0.25,0.76c-0.01,0.08,0.01,0.13,0.1,0.15c0.17-0.04,0.33-0.03,0.41,0.16
		c0.03,0.06,0.09,0.07,0.15,0.07c0.38,0.02,0.73,0.21,1.04,0.37c0.71,0.37,1.49,0.55,2.22,0.89c0.41,0.2,0.87,0.32,1.36,0.26
		c0.13-0.01,0.28-0.03,0.41-0.01c0.54,0.1,1.09,0.01,1.63-0.03c0.4-0.03,0.78-0.18,1.17-0.24c0.51-0.08,0.97-0.25,1.41-0.49
		c0.47-0.26,0.97-0.47,1.29-1.04c0.02,0.32-0.12,0.52-0.14,0.74c-0.02,0.25-0.06,0.46,0.19,0.63c0.08,0.06,0.09,0.21,0,0.29
		c-0.11,0.1-0.12,0.09-0.02,0.19c0.04,0.04,0.06,0.08,0.09,0.12c0.06,0.11,0.17,0.22,0.29,0.16c0.17-0.09,0.02-0.16-0.05-0.23
		c-0.01,0-0.01-0.02-0.01-0.02c0.01-0.3,0.01-0.59,0.02-0.89c0-0.06,0.05-0.07,0.08-0.1c0.16-0.16,0.4,0.02,0.56-0.14
		C22.19,29.32,22.35,28.97,22.27,28.66z"/>
	<path class="st8" d="M16.68,25.09c-0.06,0.06-0.13,0.05-0.21,0.03c0.03-0.06,0.08-0.03,0.12-0.04
		C16.63,25.08,16.65,25.08,16.68,25.09z"/>
	<path class="st8" d="M15.57,25.07c0.04,0,0.08,0.01,0.18,0.02c-0.14,0.04-0.21,0.06-0.27-0.01C15.51,25.08,15.54,25.08,15.57,25.07
		z"/>
	<path class="st12" d="M16.69,29.27c0.13,0.01,0.24-0.08,0.36-0.11c-0.05,0.2-0.22,0.19-0.36,0.22c-0.02-0.02-0.02-0.04,0-0.07
		C16.69,29.3,16.69,29.29,16.69,29.27z"/>
	<path class="st13" d="M14.32,26.54c-0.02-0.02-0.03-0.04-0.05-0.06c0-0.09,0.07-0.14,0.13-0.19c0.03,0,0.04,0.01,0.04,0.04
		C14.39,26.4,14.35,26.47,14.32,26.54z"/>
	<path class="st12" d="M15.85,29.47c0.02-0.02,0.04-0.04,0.06-0.05c0.12,0,0.23,0,0.35,0c0.06-0.02,0.07,0,0.06,0.05
		C16.16,29.51,16.01,29.51,15.85,29.47z"/>
	<path class="st14" d="M16.54,29.43c-0.02-0.02-0.04-0.04-0.06-0.05c0.06-0.06,0.14-0.05,0.21-0.06c0,0.02,0,0.04,0,0.07
		C16.65,29.43,16.6,29.44,16.54,29.43z"/>
	<path class="st15" d="M14.07,27.28c0-0.06-0.01-0.11-0.01-0.17c0.01-0.05-0.02-0.12,0.06-0.14c0.01,0.1,0.02,0.21,0,0.31
		C14.1,27.3,14.08,27.3,14.07,27.28z"/>
	<path class="st0" d="M10.35,29.04c-0.08-0.09-0.04-0.24-0.16-0.3c-0.79-0.45-1.58-0.89-2.41-1.25c0.27-0.11,0.52-0.21,0.77-0.34
		c0.13-0.07,0.16-0.24,0.31-0.27c0.3-0.06,0.35-0.31,0.43-0.53c0.04-0.11-0.31-0.48-0.48-0.53C7.99,25.59,7.19,25.67,6.42,26
		c-0.2,0.08-0.3,0.25-0.4,0.43c-0.03,0.06-0.06,0.12,0.01,0.16c0.07,0.04,0.11-0.01,0.15-0.06c0.09-0.1,0.16-0.21,0.25-0.3
		c0.15-0.13,0.34-0.15,0.51-0.05c0.17,0.1,0.03,0.25,0.02,0.38c-0.01,0.05-0.02,0.1-0.04,0.15c-0.09,0.24-0.12,0.51-0.29,0.72
		c-0.08,0.1-0.25,0.15-0.07,0.31c0.03,0.03,0.02,0.13-0.03,0.13c-0.2,0-0.22,0.24-0.38,0.29c-0.06,0.02-0.1,0.08-0.04,0.11
		c0.1,0.06,0.03,0.13,0.04,0.2c0.01,0.3-0.03,0.6-0.07,0.9c-0.01,0.06-0.02,0.16,0.05,0.14c0.14-0.05,0.27-0.14,0.43-0.17
		c0.04-0.01,0.06-0.14,0.07-0.21c0.07-0.39,0.16-0.77,0.29-1.14c0.05-0.16,0.14-0.2,0.29-0.17c0.51,0.11,0.97,0.34,1.43,0.55
		c0.23,0.1,0.47,0.21,0.68,0.37c0.02,0.02,0.04,0.02,0.06,0.01c0.07-0.15,0.17-0.04,0.25-0.02c0.11,0.01,0.12,0.1,0.16,0.17
		c0.02,0,0.03-0.01,0.04-0.02c0.03,0.04,0.07,0.07,0.12,0.08c0.06,0,0.1-0.03,0.1,0.08c0,0.15,0.16,0.05,0.24,0.09
		C10.36,29.16,10.41,29.1,10.35,29.04z M7.15,27.32c0.19-0.41,0.29-0.82,0.43-1.21c0.07-0.2,0.33-0.14,0.51-0.11
		c0.16,0.03,0.31,0.11,0.45,0.18c0.27,0.13,0.33,0.39,0.11,0.61C8.24,27.17,7.74,27.34,7.15,27.32z"/>
	<path class="st1" d="M9.66,28.74c-0.09,0-0.18,0-0.27,0.01c0.02-0.06-0.06-0.16,0-0.16c0.09-0.01,0.19,0.03,0.27,0.11
		C9.66,28.71,9.66,28.72,9.66,28.74z"/>
	<path class="st0" d="M5.44,29.52c-0.11-0.22-0.2-0.46-0.28-0.7c-0.07-0.2-0.1-0.42-0.2-0.6c-0.09-0.18-0.16-0.36-0.22-0.55
		c-0.11-0.3-0.19-0.61-0.32-0.91c-0.12-0.27-0.22-0.55-0.08-0.85c0.04-0.1,0.26-0.21,0.08-0.32c-0.15-0.09-0.21,0.13-0.3,0.22
		c-0.01,0.01-0.03,0.02-0.04,0.02c-0.05-0.08-0.05-0.25-0.2-0.15C3.77,25.74,3.55,25.77,3.7,26c0.12,0.18,0.09,0.4,0.01,0.57
		c-0.32,0.65-0.55,1.33-0.82,2c-0.03,0.07-0.04,0.14-0.11,0.17c-0.2,0.08-0.3,0.24-0.4,0.44c0.28,0.02,0.24,0.18,0.16,0.35
		c-0.1,0.19-0.21,0.38-0.31,0.57c-0.05,0.09-0.19,0.21-0.06,0.29c0.16,0.09,0.18-0.11,0.23-0.2c0.17-0.31,0.3-0.64,0.49-0.93
		C3,29.09,3,28.84,3.28,28.77c0.28-0.07,0.56-0.17,0.85-0.22c0.24-0.04,0.44-0.04,0.49,0.28c0.02,0.12,0.08,0.27,0.17,0.34
		c0.1,0.07,0.07,0.15,0.09,0.23c0.07,0.06,0.18-0.18,0.22,0.04c0.02,0.07-0.11,0.09-0.06,0.17c0.05,0.01,0.11-0.09,0.15-0.02
		c0.05,0.09-0.1,0.05-0.1,0.13l0,0l0,0c0.04,0.02,0.08,0.04,0.12,0.06c0.09,0.04,0.18,0.09,0.26,0.01
		C5.55,29.67,5.47,29.58,5.44,29.52z M4.34,28.26c-0.35,0.06-0.7,0.14-1.08,0.24c0.19-0.57,0.4-1.07,0.7-1.55
		c0.22,0.37,0.24,0.8,0.43,1.17C4.42,28.18,4.38,28.25,4.34,28.26z M4.55,28.25c0.03-0.2-0.18-0.35-0.13-0.55
		c0-0.01-0.01-0.02-0.01-0.02c-0.05-0.08-0.1-0.17-0.09-0.27c0-0.01,0.05-0.02,0.07-0.01c0.11,0.08,0.13,0.18,0.1,0.3
		c0.07,0.16,0.13,0.33,0.2,0.49c0.02,0.05,0.04,0.1-0.03,0.12C4.61,28.31,4.55,28.29,4.55,28.25z M4.68,28.46
		c0.23,0.13,0.2,0.33,0.24,0.51C4.73,28.86,4.73,28.67,4.68,28.46z"/>
	<path class="st4" d="M15.95,26.18c0.08,0.1,0.07,0.21,0.01,0.31C15.96,26.39,15.96,26.28,15.95,26.18z"/>
	<path class="st4" d="M16.21,27.4c0.14-0.04,0.15,0.06,0.16,0.15C16.3,27.52,16.25,27.46,16.21,27.4z"/>
</g>
</svg>
