<?xml version="1.0" encoding="utf-8"?>
<!-- Generator: Adobe Illustrator 25.3.1, SVG Export Plug-In . SVG Version: 6.00 Build 0)  -->
<svg version="1.1" id="圖層_1" xmlns="http://www.w3.org/2000/svg" xmlns:xlink="http://www.w3.org/1999/xlink" x="0px" y="0px"
	 viewBox="0 0 32 32" style="enable-background:new 0 0 32 32;" xml:space="preserve">
<style type="text/css">
	.st0{fill:#707070;}
	.st1{fill:#8DB9E7;}
	.st2{fill:#676869;}
	.st3{fill:#FDFAFA;}
	.st4{fill:#757678;}
	.st5{fill:#7C7D7F;}
	.st6{fill:#FAE1E1;}
	.st7{fill:#F8F8F8;}
	.st8{fill:#FCFBF9;}
	.st9{fill:#F3CFC6;}
	.st10{fill:#929394;}
	.st11{fill:#8F9092;}
	.st12{fill:#5F646E;}
	.st13{fill:#F0BC40;}
	.st14{fill:#F3E4C3;}
	.st15{fill:#ECCC83;}
	.st16{fill:#E6E5E4;}
	.st17{fill:#FEFEFE;}
	.st18{fill:#D5D6D6;}
	.st19{fill:#DADADB;}
	.st20{fill:#FCFBFB;}
	.st21{fill:#E4E4E4;}
	.st22{fill:#DEDEDF;}
	.st23{fill:#E6E7E7;}
	.st24{fill:#E0E1E1;}
	.st25{fill:#F1F1F0;}
	.st26{fill:#FAFAF9;}
	.st27{fill:#E2E2E1;}
	.st28{fill:#D9D9DA;}
	.st29{fill:#EFEFF0;}
	.st30{fill:#E4E4E5;}
	.st31{fill:#E9E9E9;}
	.st32{fill:#E2E2E3;}
	.st33{fill:#FDFDFC;}
	.st34{fill:#DCDDDE;}
	.st35{fill:#E3E3E3;}
	.st36{fill:#EDEDEE;}
	.st37{fill:#EAEAEB;}
	.st38{fill:#E6E6E7;}
	.st39{fill:#FAFBFB;}
	.st40{fill:#F0F1F1;}
	.st41{fill:#77787A;}
</style>
<g>
	<g>
		<g>
			<path class="st0" d="M12.18,21.09l-0.36-0.18c-3.32-1.69-5.39-5.05-5.39-8.78V9.29h19.69v2.83c0,3.73-2.06,7.09-5.39,8.78
				l-0.36,0.18v-5.18c0-2.26-1.84-4.1-4.1-4.1c-2.26,0-4.1,1.84-4.1,4.1V21.09z M6.93,9.79v2.34c0,3.4,1.81,6.48,4.75,8.14v-4.35
				c0-2.53,2.06-4.59,4.59-4.59s4.59,2.06,4.59,4.59v4.35c2.94-1.66,4.75-4.74,4.75-8.14V9.79H6.93z"/>
		</g>
		<rect x="5.03" y="5.88" class="st0" width="22.5" height="2.6"/>
		<g>
			<path class="st0" d="M16.28,12.32c-1.98,0-3.6,1.61-3.6,3.6v5.11c1.11,0.45,2.33,0.7,3.6,0.7h0c1.27,0,2.49-0.25,3.6-0.7v-5.11
				C19.88,13.93,18.26,12.32,16.28,12.32z M16.28,19c-1.68,0-3.05-1.36-3.05-3.05c0-1.68,1.36-3.05,3.05-3.05
				c1.68,0,3.05,1.36,3.05,3.05C19.33,17.63,17.96,19,16.28,19z"/>
		</g>
	</g>
</g>
<g>
	<path class="st1" d="M16.28,15.03c-0.43,0-0.78,0.35-0.78,0.78s0.35,0.78,0.78,0.78c0.43,0,0.78-0.35,0.78-0.78
		S16.71,15.03,16.28,15.03z M16.28,16.01c-0.11,0-0.2-0.09-0.2-0.2c0-0.11,0.09-0.2,0.2-0.2c0.11,0,0.2,0.09,0.2,0.2
		C16.48,15.92,16.39,16.01,16.28,16.01z"/>
</g>
<g>
	<path class="st2" d="M16.97,23.19c0.08,0,0.15-0.01,0.22,0.04c-0.01,0.02-0.03,0.03-0.05,0.03c0.05,0,0.09,0.01,0.14-0.01
		c0.15,0.05,0.31,0.09,0.46,0.14c0.08,0.06,0.2,0.04,0.26,0.15c0.53,0.39,0.9,0.88,1.02,1.54c0.01,0.08,0.09,0.2-0.05,0.23
		c-0.12,0.03-0.28,0.07-0.32-0.13c-0.07-0.06-0.08-0.14-0.1-0.22c-0.01-0.08-0.04-0.15-0.08-0.22c-0.04-0.08-0.08-0.16-0.13-0.23
		c-0.01-0.02-0.03-0.04-0.04-0.05c-0.05-0.08-0.1-0.16-0.19-0.21c-0.07-0.05-0.11-0.11-0.16-0.17c-0.06-0.08-0.15-0.13-0.23-0.19
		c-0.06-0.05-0.14-0.08-0.21-0.09c-0.09-0.03-0.17-0.07-0.26-0.1c-0.13-0.04-0.26-0.07-0.38-0.1c-0.12-0.04-0.24-0.04-0.36,0
		c-0.06,0.01-0.12,0.02-0.18,0.02c-0.11,0.01-0.21,0.04-0.31,0.07c-0.08,0.02-0.15,0.05-0.21,0.09c-0.07,0.03-0.14,0.06-0.2,0.11
		c-0.07,0.06-0.15,0.11-0.19,0.19c-0.04,0.07-0.11,0.12-0.17,0.16c-0.08,0.05-0.12,0.13-0.18,0.19c-0.05,0.06-0.1,0.12-0.12,0.19
		c-0.04,0.11-0.17,0.2-0.1,0.35c0.01,0.05-0.01,0.09-0.03,0.13c-0.03,0.05-0.05,0.1-0.06,0.16c-0.02,0.19-0.06,0.37,0.03,0.55
		c0.05,0.1-0.01,0.2,0.03,0.3c0.02,0.09,0.06,0.16,0.12,0.22c0.01,0.02,0.02,0.04,0.03,0.06c0.01,0.08,0.06,0.14,0.12,0.19
		c0.01,0.02,0.02,0.04,0.03,0.06c0.03,0.08,0.06,0.16,0.14,0.2c0.18,0.13,0.36,0.28,0.55,0.4c0.1,0.12,0.24,0.16,0.39,0.15
		c0.02,0,0.05,0.01,0.07,0.02c0.07,0.05,0.15,0.05,0.23,0.05c0.13,0,0.25,0,0.38,0c0.07,0,0.15,0,0.22-0.02
		c0.05-0.01,0.09-0.02,0.14-0.02c0.15-0.03,0.26-0.12,0.37-0.21c0.05-0.03,0.1-0.06,0.15-0.08c0.08-0.03,0.16-0.07,0.19-0.16
		c0.01-0.02,0.02-0.04,0.04-0.05l-0.01,0c0.12-0.11,0.23-0.24,0.34-0.37c0.09-0.07,0.14-0.17,0.17-0.28
		c0.05-0.11,0.03-0.23,0.08-0.34c0.01-0.01,0.02-0.02,0.03-0.02c0.12-0.04,0.02-0.2,0.12-0.22c0.09-0.02,0.19-0.03,0.28-0.01
		c0.1,0.03,0.04,0.13,0.03,0.2c-0.1,0.71-0.46,1.26-1.06,1.66c-0.09,0.06-0.19,0.12-0.28,0.17c-0.24,0.08-0.46,0.18-0.72,0.18
		c-0.19-0.03-0.37-0.03-0.56,0c-0.35-0.01-0.65-0.16-0.95-0.3c-0.4-0.13-0.64-0.43-0.85-0.77c-0.66-1.05-0.38-2.5,0.63-3.23
		c0.14-0.1,0.3-0.15,0.46-0.22c0.14-0.03,0.27-0.07,0.41-0.1c0.02,0.01,0.04,0.02,0.07,0.02c0.02,0,0.04,0.01,0.06,0
		c-0.02,0-0.03-0.01-0.04-0.03c0.06-0.05,0.14-0.04,0.22-0.04C16.6,23.23,16.79,23.23,16.97,23.19z"/>
	<path class="st0" d="M24.1,26.55c-0.18-0.19-0.19-0.41-0.15-0.65c-0.03-0.06,0.01-0.1,0.06-0.12c0.09-0.3,0.1-0.59,0.03-0.89
		c-0.01-0.03-0.03-0.06-0.02-0.09c0.07-0.39-0.29-0.42-0.5-0.57c-0.11-0.08-0.18,0.03-0.19,0.13c-0.01,0.17-0.18,0.2-0.26,0.3
		c-0.01,0.01-0.05,0.01-0.07,0c-0.04-0.02-0.04-0.07-0.03-0.11c0.02-0.27,0.21-0.42,0.38-0.57c0.41-0.36,0.68-0.27,0.79,0.26
		c0.05,0.23,0.03,0.49,0.07,0.7c0.07,0.33,0.03,0.64,0.06,0.96c0.02,0.27,0.06,0.55,0.06,0.83c0,0.07,0.02,0.15,0.11,0.21
		c0.1-0.14,0.21-0.28,0.31-0.43c0.36-0.59,0.8-1.13,1.11-1.75c0.08-0.16,0.19-0.3,0.3-0.43c0.07-0.08,0.16-0.15,0.27-0.1
		c0.11,0.05,0.07,0.16,0.05,0.25c-0.11,0.69-0.15,1.38-0.07,2.07c0.02,0.17-0.08,0.35,0.06,0.51c0.04,0.04-0.01,0.08-0.05,0.09
		c-0.09,0.03-0.12-0.03-0.13-0.1c-0.05-0.3-0.1-0.61-0.14-0.91c-0.02-0.14,0-0.28-0.13-0.4c-0.07-0.07-0.09-0.22-0.03-0.35
		c0.02-0.05,0.02-0.15-0.05-0.18c-0.09-0.04-0.1,0.06-0.13,0.11c-0.34,0.53-0.67,1.06-1.05,1.56c-0.17,0.22-0.37,0.39-0.62,0.51
		c-0.1,0.05-0.18,0.09-0.14-0.09c0.04-0.18-0.07-0.34-0.08-0.52c0-0.09-0.01-0.16,0.08-0.21c0.13,0.06,0.05,0.19,0.1,0.3
		c0,0.01,0.04-0.04,0.01-0.02c-0.01,0.01-0.02,0-0.02-0.01C24.09,26.73,24.07,26.64,24.1,26.55z"/>
	<path class="st1" d="M17.37,25.02c0.06-0.15,0.18-0.01,0.27-0.05c0.07-0.05,0.02-0.16,0.1-0.21c0.46,0.57,0.34,1.4-0.27,1.83
		c-0.6,0.43-1.49,0.29-1.87-0.3c-0.01-0.01,0-0.03,0-0.05c0.03-0.08,0.09-0.16,0.12-0.24c0.12-0.28,0.3-0.52,0.44-0.79
		c0.07-0.15,0.15-0.17,0.27-0.02c0.17,0.21,0.25,0.48,0.49,0.64c0.2,0.14,0.22,0.14,0.29-0.11c0.05-0.18,0.09-0.36,0.11-0.54
		C17.31,25.12,17.31,25.06,17.37,25.02z"/>
	<path class="st0" d="M29.25,23.5c-0.21,0.12-0.38,0.3-0.65,0.31c-0.17,0-0.3,0.17-0.31,0.36c-0.02,0.32-0.15,0.64,0.02,0.97
		c0.07,0.13-0.11,0.25-0.04,0.41c0.05,0.1-0.03,0.24,0.1,0.35c0.06,0.05,0,0.25-0.02,0.38c-0.03,0.21,0.02,0.43,0.04,0.65
		c0.04,0.37-0.13,0.62-0.43,0.83c-0.24,0.17-0.48,0.21-0.75,0.24c-0.1,0.01-0.16-0.04-0.16-0.11c0-0.08,0.09-0.06,0.16-0.07
		c0.21-0.04,0.42-0.1,0.62-0.16c0.29-0.08,0.18-0.35,0.18-0.51c-0.01-0.48-0.06-0.97-0.16-1.45c-0.03-0.14,0.02-0.3-0.02-0.44
		c-0.03-0.09-0.02-0.2-0.06-0.27c-0.18-0.26-0.02-0.48,0.08-0.68c0.12-0.25,0.31-0.48,0.55-0.62C28.63,23.51,28.94,23.47,29.25,23.5
		z"/>
	<path class="st1" d="M15.5,26.15c-0.33-0.78-0.04-1.54,0.7-1.83c0.09-0.03,0.17-0.07,0.27-0.05c0.02,0.02,0.03,0.04,0.02,0.07
		c-0.23,0.46-0.43,0.94-0.65,1.41c-0.04,0.08-0.07,0.17-0.12,0.25C15.66,26.07,15.64,26.2,15.5,26.15z"/>
	<path class="st3" d="M15.69,25.98c0.16-0.36,0.28-0.74,0.49-1.08c0.11-0.18,0.09-0.43,0.28-0.59c0.03-0.02,0.07-0.03,0.1-0.01
		c0.02,0.02,0.03,0.04,0.04,0.06c0.02,0.08,0.02,0.17,0.02,0.26c-0.06,0.3,0.02,0.57,0.2,0.82c0.04,0.05,0.08,0.11,0.14,0.13
		c0.12-0.13,0.14-0.3,0.17-0.46c0.03-0.16,0.04-0.16,0.19-0.22c0,0.05-0.01,0.1,0.04,0.14c0.03,0.31-0.11,0.59-0.15,0.89
		c-0.02,0.14-0.17,0.15-0.26,0.07c-0.28-0.23-0.47-0.55-0.67-0.88c-0.19,0.32-0.37,0.63-0.55,0.94
		C15.7,26.04,15.67,26.03,15.69,25.98z"/>
	<path class="st1" d="M16.81,25.5c-0.23-0.26-0.34-0.54-0.24-0.88c0.02-0.1,0.04-0.2-0.01-0.3l0,0c0.06-0.14,0.17-0.06,0.27-0.05
		c0.16,0.04,0.33,0.07,0.48,0.15c0.11,0.07,0.22,0.12,0.08,0.26c-0.06,0.06-0.03,0.14-0.05,0.21c-0.21,0.14-0.07,0.42-0.22,0.6
		c-0.04,0.04-0.09,0.12-0.11,0.19c-0.01,0-0.02,0-0.02-0.01c-0.01-0.01-0.01-0.01-0.01-0.02C16.93,25.58,16.91,25.5,16.81,25.5z"/>
	<path class="st4" d="M17.29,23.65c0.09,0.04,0.17,0.07,0.26,0.11c0.07,0.05,0.14,0.11,0.22,0.15c0.07,0.05,0.15,0.09,0.22,0.14
		c0.09,0.02,0.1,0.12,0.17,0.16c0.05,0.1,0.12,0.18,0.2,0.25l0,0c0.06,0.09,0.07,0.21,0.13,0.3c0.04,0.08,0.07,0.16,0.08,0.25
		c0.04,0.07,0.04,0.14,0.02,0.22c-0.01,0.03-0.01,0.07-0.06,0.06c-0.05-0.02-0.03-0.07-0.06-0.1c-0.19-0.71-0.61-1.21-1.34-1.39
		c-1.26-0.31-2.38,0.7-2.2,2c0.04,0.27,0.15,0.51,0.24,0.76c-0.02,0.02-0.04,0.03-0.06,0.03c-0.11-0.01-0.1-0.12-0.16-0.18
		c0-0.02,0-0.04,0-0.06c-0.08-0.07-0.09-0.18-0.13-0.27c-0.05-0.09,0.06-0.21-0.05-0.29c-0.02-0.04-0.02-0.08-0.02-0.12
		c0-0.1,0-0.2,0-0.29c0.01-0.1,0.02-0.2,0.05-0.29c0.04-0.02,0.05-0.06,0.06-0.1c-0.02-0.13,0.06-0.22,0.11-0.32
		c0.04-0.07,0.06-0.15,0.12-0.2c0.05-0.09,0.11-0.17,0.18-0.24c0.05-0.05,0.1-0.11,0.16-0.16c0.08-0.06,0.16-0.12,0.24-0.18
		c0.06-0.07,0.15-0.07,0.21-0.12c0.07-0.05,0.16-0.06,0.24-0.1c0.14-0.04,0.29-0.06,0.44-0.06c0.15-0.04,0.3,0,0.45,0.01
		C17.08,23.62,17.18,23.67,17.29,23.65z"/>
	<path class="st4" d="M15.08,26.56c0.02,0,0.05-0.01,0.07-0.01c0.05,0,0.08,0.02,0.1,0.06c0.51,0.65,1.18,0.84,1.98,0.66
		c0.03,0.01,0.06,0.03,0.07,0.07c0,0.02-0.02,0.04-0.04,0.06c-0.07,0.02-0.14,0.03-0.2,0.06c-0.07,0.01-0.15,0.01-0.22,0.03
		c-0.11,0-0.21,0.01-0.32-0.01c-0.09-0.03-0.2,0-0.27-0.07l-0.01,0c-0.17-0.01-0.31-0.06-0.45-0.16c-0.22-0.1-0.4-0.24-0.55-0.43
		c-0.06-0.06-0.11-0.13-0.15-0.2c0-0.01,0-0.02,0.01-0.03c-0.02-0.01-0.02-0.02-0.02-0.03C15.07,26.56,15.07,26.56,15.08,26.56z"/>
	<path class="st5" d="M18.35,26.58c-0.1,0.13-0.16,0.31-0.36,0.33c0-0.06-0.01-0.12,0.04-0.17c0.27-0.31,0.4-0.67,0.46-1.06
		c0.14,0.01,0.07,0.12,0.09,0.19c0,0.11-0.02,0.22-0.05,0.32C18.49,26.33,18.43,26.46,18.35,26.58z"/>
	<path class="st2" d="M17.29,27.32c-0.02-0.02-0.04-0.03-0.06-0.05c0.17-0.09,0.34-0.18,0.51-0.27c0.04,0.01,0.06,0.03,0.08,0.06
		c0.01,0.03,0.01,0.07-0.02,0.1c-0.05,0.02-0.11,0.04-0.16,0.05C17.54,27.31,17.44,27.39,17.29,27.32z"/>
	<path class="st0" d="M24.01,25.78c-0.02,0.04-0.04,0.08-0.06,0.12c-0.09-0.13-0.05-0.28-0.06-0.46
		C24.01,25.56,24.03,25.66,24.01,25.78z"/>
	<path class="st6" d="M15.69,25.98c0.02,0.02,0.04,0.04,0.05,0.06c0.02,0.12-0.06,0.16-0.15,0.2c-0.03-0.03-0.07-0.06-0.1-0.09
		C15.64,26.18,15.57,25.97,15.69,25.98z"/>
	<path class="st1" d="M17.74,24.76c-0.02,0.08,0.04,0.19-0.1,0.21c0.01-0.07,0-0.15,0.02-0.22C17.69,24.65,17.72,24.73,17.74,24.76z
		"/>
	<path class="st0" d="M23.94,25.09c0.04,0.07,0.11,0.14,0.01,0.22c-0.01,0.01-0.06,0.01-0.07,0.01
		C23.85,25.23,23.85,25.15,23.94,25.09z"/>
	<path class="st7" d="M18.56,25.22c0.02-0.07-0.02-0.13-0.05-0.19c0.03-0.03-0.01-0.13,0.09-0.1c0.02,0.08,0.04,0.17,0.05,0.25
		c-0.02,0.02-0.03,0.04-0.05,0.06C18.58,25.25,18.57,25.25,18.56,25.22z"/>
	<path class="st0" d="M10.45,26.75c0.15,0,0.21,0.05,0.16,0.2c-0.06,0-0.11-0.04-0.13-0.1c-0.03,0-0.05-0.01-0.05-0.04
		C10.43,26.8,10.43,26.77,10.45,26.75z"/>
	<path class="st0" d="M10.45,26.8c0.01,0.02,0.02,0.04,0.02,0.06c-0.13,0.09-0.23,0.01-0.33-0.05c0.02,0,0.03,0,0.04,0
		C10.27,26.74,10.36,26.75,10.45,26.8z"/>
	<path class="st8" d="M18,23.54c-0.09-0.05-0.17-0.1-0.26-0.15c0.14-0.03,0.25,0.03,0.36,0.11C18.06,23.5,18.02,23.5,18,23.54z"/>
	<path class="st0" d="M23.85,24.58c0.05,0.03,0.11,0.04,0.09,0.12c-0.01,0.02-0.05,0.06-0.07,0.05c-0.05-0.02-0.1-0.06-0.1-0.12
		C23.78,24.6,23.81,24.58,23.85,24.58z"/>
	<path class="st9" d="M11.12,27.1c-0.11-0.07-0.11-0.19-0.16-0.29c0.02,0,0.04,0,0.06,0c0.03,0.05,0.06,0.1,0.09,0.14
		C11.12,27,11.12,27.05,11.12,27.1z"/>
	<path class="st1" d="M16.83,24.26c-0.09,0.02-0.19-0.03-0.27,0.05c-0.03,0-0.07,0-0.1,0c0-0.01,0-0.03,0-0.04
		C16.59,24.21,16.71,24.21,16.83,24.26z"/>
	<path class="st0" d="M24.1,26.55c-0.01,0.11,0.05,0.22,0,0.35c-0.06-0.13-0.01-0.26-0.09-0.35C24.04,26.55,24.07,26.55,24.1,26.55z
		"/>
	<path class="st2" d="M17.79,27.06c-0.02-0.02-0.04-0.04-0.05-0.06c0.07-0.08,0.15-0.12,0.26-0.09c0,0.01,0,0.02,0,0.03
		C17.96,27.03,17.9,27.08,17.79,27.06z"/>
	<path class="st1" d="M21.01,25.59c-0.01,0.06-0.01,0.11-0.02,0.22c-0.06-0.09-0.03-0.21-0.14-0.18
		C20.89,25.56,20.95,25.59,21.01,25.59z"/>
	<path class="st10" d="M18.56,25.9c-0.01-0.08,0.02-0.17-0.07-0.22c0.12,0,0.12,0,0.12,0.22c0,0,0,0,0,0
		C18.6,25.91,18.58,25.91,18.56,25.9z"/>
	<path class="st0" d="M10.64,26.94c0.08-0.03,0.09,0.03,0.11,0.08c-0.02,0.05-0.05,0.06-0.09,0.03
		C10.62,27.02,10.62,26.98,10.64,26.94z"/>
	<path class="st11" d="M18.56,25.22c0.01,0.01,0.03,0.01,0.04,0.02c0,0.05-0.02,0.1-0.09,0.08c-0.07-0.02-0.06-0.09-0.06-0.14
		C18.5,25.17,18.49,25.3,18.56,25.22z"/>
	<path class="st12" d="M16.97,23.19c-0.19,0.08-0.37,0.08-0.56,0C16.6,23.19,16.79,23.19,16.97,23.19z"/>
	<path class="st12" d="M16.42,27.87c0.19-0.07,0.37-0.07,0.56,0C16.79,27.87,16.6,27.87,16.42,27.87z"/>
	<path class="st13" d="M22.01,27.96c0,0.04-0.03,0.06-0.07,0.05c-0.03-0.01-0.05-0.04-0.06-0.07c-0.01-0.04,0.03-0.05,0.07-0.05
		C22,27.89,22.01,27.92,22.01,27.96z"/>
	<path class="st14" d="M20.27,23.53c-0.12-0.11-0.08-0.2-0.04-0.29C20.24,23.33,20.25,23.41,20.27,23.53z"/>
	<path class="st15" d="M22.44,27.39c0.06,0.06,0.1,0.11,0.07,0.14c-0.06,0.06-0.08,0-0.08-0.05C22.43,27.46,22.44,27.43,22.44,27.39
		z"/>
	<path class="st1" d="M22.71,26.73c-0.02-0.08-0.07-0.18-0.03-0.26c0.09-0.19,0.02-0.32-0.16-0.37c-0.18-0.06-0.13-0.29-0.29-0.35
		c-0.01,0-0.02,0-0.03,0c-0.18,0.11-0.21-0.03-0.26-0.15c-0.03-0.06-0.03-0.17-0.14-0.16c-0.09,0.01-0.13,0.08-0.14,0.16
		c-0.03,0.13-0.07,0.16-0.21,0.09c-0.13-0.07-0.3-0.07-0.45-0.1c0,0.1-0.05,0.05-0.09,0.03c-0.02-0.01-0.05,0-0.07,0.01
		c-0.17,0.19-0.17,0.19-0.38,0.03c-0.02-0.01-0.05-0.02-0.07-0.01c-0.1,0.07-0.2,0.15-0.29,0.23c-0.03,0.03-0.05,0.09-0.02,0.14
		c0.02,0.03,0.06,0.04,0.09,0.02c0.25-0.15,0.5-0.01,0.76-0.03c0.14-0.01,0.2,0.13,0.21,0.22c0.01,0.13,0.05,0.35-0.06,0.38
		c-0.29,0.08-0.45,0.44-0.8,0.37c-0.08-0.01-0.1,0.05-0.13,0.1c-0.07,0.14-0.18,0.22-0.31,0.28c-0.07,0.03-0.15,0.06-0.15,0.15
		c0,0.15-0.09,0.13-0.17,0.07c-0.19-0.14-0.37-0.09-0.57-0.01c-0.08,0.03-0.16,0.09-0.26,0.02c-0.09-0.06-0.18,0.02-0.25,0.08
		c-0.08,0.07,0.01,0.11,0.04,0.17c0.05,0.11,0,0.22-0.06,0.31c-0.08,0.11-0.19-0.01-0.28-0.01c-0.08,0-0.02-0.12-0.03-0.19
		c-0.01-0.08,0.02-0.17-0.03-0.26c-0.12,0.08-0.24,0.15-0.37,0.23c0-0.08-0.01-0.15-0.01-0.22c-0.08-0.07-0.16-0.01-0.23,0.01
		c-0.17,0.05-0.34,0.1-0.51,0.1c-0.17,0-0.33,0-0.5,0c-0.36,0.01-0.65-0.19-0.98-0.29c-0.02,0-0.04,0-0.05,0
		c0.02,0.02,0.04,0.03,0.05,0.05c-0.25,0.05-0.48,0.01-0.71-0.07c-0.12-0.04-0.11-0.26-0.29-0.18c-0.2-0.29-0.58-0.17-0.83-0.36
		c-0.01-0.01-0.03-0.03-0.05-0.04c-0.01,0-0.03-0.01-0.04-0.01c-0.36,0.1-0.51-0.25-0.78-0.35c-0.18-0.07-0.31-0.26-0.54-0.24
		c-0.03,0-0.08-0.06-0.11-0.09c-0.1-0.12-0.23-0.2-0.38-0.24c0,0,0,0,0,0c0,0,0,0,0,0c-0.06-0.02-0.12-0.04-0.16-0.1c0,0,0,0,0,0
		c0,0,0,0,0,0c-0.07,0-0.1-0.05-0.14-0.09c-0.04-0.04-0.06-0.08-0.02-0.13c0.02-0.02,0.06-0.05,0.08-0.05
		c0.06,0.02,0.04,0.08,0.05,0.13c0.01,0.05,0.02,0.1,0.03,0.15c0,0,0,0,0,0c0.06,0.01,0.1-0.02,0.15-0.05
		c0.76-1.15,1.75-1.97,3.12-2.3c0.29-0.07,0.56-0.19,0.86-0.19c-0.04,0.03-0.08,0.05-0.12,0.08c0.04-0.01,0.08-0.02,0.12-0.02
		c0.14-0.01,0.27-0.07,0.41-0.1c0.04-0.01,0.07-0.02,0.11-0.03c0.07-0.03,0.15-0.02,0.23-0.02c0.16,0,0.32,0,0.48,0
		c0.08,0,0.15,0,0.23,0.02c0.04,0.01,0.07,0.02,0.11,0.03c0.16,0.03,0.31,0.1,0.46,0.14c0.12,0.04,0.24,0.01,0.36,0.05
		c0.18,0.07,0.37,0.12,0.56,0.14c0.07,0,0.17-0.01,0.19,0.09c0.04,0.25,0.23,0.2,0.39,0.2c0.17,0,0.33,0,0.5,0.03
		c0.51,0.06,0.9,0.41,1.38,0.52c0.06,0.01,0.13,0.04,0.15,0.08c0.11,0.23,0.34,0.3,0.54,0.42c0.22,0.14,0.39,0.12,0.56-0.06
		c0.26-0.29,0.27-0.37,0.06-0.61c-0.08-0.09-0.17-0.17-0.26-0.24c-0.4-0.34-0.85-0.62-1.29-0.91c-0.16-0.1-0.3-0.14-0.47-0.05
		c-0.14,0.07-0.24,0.06-0.24-0.13c0-0.12-0.1-0.19-0.19-0.22c-0.42-0.15-0.86-0.18-1.29-0.14c-0.16,0.02-0.29,0.15-0.41-0.07
		c-0.03-0.06-0.16-0.12-0.22-0.1c-0.23,0.07-0.42-0.08-0.61-0.12c-0.31-0.07-0.52-0.01-0.74,0.17c-0.07,0.06-0.1,0.03-0.17,0.02
		c-0.25-0.04-0.48-0.2-0.75-0.16c-0.36,0.05-0.73,0.07-1.09,0.11c-0.06,0.01-0.13,0.01-0.17,0.05c-0.16,0.15-0.34,0.2-0.56,0.13
		c-0.13-0.04-0.12,0.13-0.19,0.19c-0.04-0.09-0.08-0.25-0.2-0.12c-0.12,0.13-0.25,0.22-0.41,0.3c-0.22,0.12-0.37,0.35-0.59,0.5
		c-0.12,0.08-0.27,0.07-0.36,0.19c-0.1,0.15-0.19,0.31-0.32,0.44c-0.2,0.21-0.36,0.52-0.74,0.43c-0.04,0.16-0.03,0.31,0.01,0.46
		c-0.14-0.12-0.25-0.25-0.37-0.37c-0.05-0.05-0.09-0.14-0.18-0.05c-0.07,0.06-0.1,0.14-0.04,0.23c0.09,0.13,0.14,0.28,0.26,0.4
		c0.3,0.3,0.29,0.39-0.04,0.62c-0.15,0.1-0.05,0.17-0.02,0.25c0.08,0.24,0.33,0.43,0.24,0.73c-0.01,0.07,0.01,0.13,0.09,0.14
		c0.17-0.04,0.32-0.03,0.4,0.15c0.03,0.06,0.09,0.07,0.15,0.07c0.37,0.02,0.71,0.2,1.01,0.36c0.69,0.36,1.45,0.53,2.15,0.86
		c0.4,0.19,0.85,0.31,1.32,0.26c0.13-0.01,0.27-0.03,0.4-0.01c0.53,0.1,1.06,0.01,1.58-0.03c0.39-0.03,0.76-0.17,1.14-0.24
		c0.49-0.08,0.94-0.24,1.37-0.48c0.45-0.25,0.95-0.46,1.25-1.01c0.01,0.31-0.11,0.51-0.13,0.72c-0.02,0.24-0.05,0.45,0.19,0.62
		c0.08,0.06,0.09,0.2,0,0.29c-0.11,0.1-0.12,0.09-0.02,0.19c0.04,0.04,0.06,0.08,0.08,0.12c0.06,0.1,0.16,0.22,0.28,0.16
		c0.16-0.08,0.02-0.16-0.05-0.22c0,0-0.01-0.01-0.01-0.02c0.01-0.29,0.01-0.58,0.02-0.87c0-0.06,0.04-0.07,0.08-0.1
		c0.16-0.16,0.39,0.02,0.54-0.14C22.63,27.37,22.78,27.03,22.71,26.73z"/>
	<path class="st12" d="M17.28,23.25c-0.06,0.06-0.13,0.05-0.2,0.03c0.03-0.06,0.08-0.03,0.12-0.04
		C17.22,23.24,17.25,23.25,17.28,23.25z"/>
	<path class="st12" d="M16.2,23.24c0.04,0,0.08,0.01,0.18,0.02c-0.13,0.04-0.2,0.06-0.26-0.01C16.14,23.24,16.17,23.24,16.2,23.24z"
		/>
	<path class="st16" d="M15.79,27.26c0.16,0.03,0.3,0.09,0.45,0.16C16.04,27.51,15.9,27.42,15.79,27.26z"/>
	<path class="st17" d="M17.29,27.32c0.13,0.01,0.23-0.08,0.35-0.1c-0.05,0.19-0.21,0.19-0.35,0.21c-0.02-0.02-0.02-0.04,0-0.07
		C17.28,27.35,17.28,27.33,17.29,27.32z"/>
	<path class="st18" d="M14.77,25.68c0,0.04,0,0.08,0.01,0.11c0,0.01,0,0.02,0.01,0.03c-0.04,0.01-0.1,0.01-0.1-0.04
		c0-0.19-0.05-0.38,0.03-0.57c0.05,0.04,0.03,0.1,0.03,0.15C14.77,25.47,14.74,25.58,14.77,25.68z"/>
	<path class="st19" d="M16.49,23.64c-0.15-0.02-0.29,0.04-0.44,0.06c-0.03-0.01-0.05-0.02-0.06-0.05c0.09-0.08,0.21-0.07,0.31-0.09
		c0.06,0.04,0.15-0.01,0.21,0.04C16.54,23.63,16.52,23.64,16.49,23.64z"/>
	<path class="st20" d="M17.29,23.65c-0.08,0.09-0.17,0.05-0.25,0c-0.08-0.06-0.19,0.02-0.27-0.05c0.01-0.08,0.06-0.08,0.12-0.05
		C17.03,23.54,17.16,23.58,17.29,23.65z"/>
	<path class="st21" d="M14.98,24.66c-0.05,0.1-0.09,0.21-0.14,0.31c-0.19-0.18,0.07-0.25,0.09-0.37
		C14.96,24.61,14.97,24.64,14.98,24.66z"/>
	<path class="st22" d="M18.35,24.47c-0.13-0.03-0.22-0.1-0.2-0.25C18.29,24.25,18.33,24.35,18.35,24.47z"/>
	<path class="st23" d="M17.79,27.06c0.07-0.04,0.14-0.08,0.2-0.12c0.03,0.13,0.01,0.15-0.2,0.22C17.8,27.13,17.79,27.1,17.79,27.06z
		"/>
	<path class="st24" d="M17.98,24.05c-0.11,0.03-0.17-0.06-0.24-0.11c-0.03-0.04-0.03-0.08,0.01-0.11
		C17.84,23.89,17.97,23.91,17.98,24.05z"/>
	<path class="st25" d="M18.35,26.58c0.01-0.14,0.09-0.26,0.15-0.39c0.04,0.02,0.02,0.07,0.04,0.1
		C18.5,26.41,18.47,26.52,18.35,26.58z"/>
	<path class="st26" d="M18.54,26.29c-0.01-0.03-0.03-0.07-0.04-0.1c0.02-0.1,0.04-0.2,0.06-0.29c0.02,0,0.03,0,0.05-0.01
		C18.63,26.03,18.61,26.17,18.54,26.29z"/>
	<path class="st27" d="M18.46,24.76c-0.1-0.08-0.1-0.19-0.11-0.3c0.1,0.06,0.14,0.15,0.16,0.26C18.5,24.74,18.48,24.76,18.46,24.76z
		"/>
	<path class="st28" d="M18.46,24.76c0.02-0.02,0.04-0.03,0.05-0.05c0.07,0.05,0.08,0.13,0.09,0.21c-0.03,0.03-0.06,0.07-0.09,0.1
		C18.49,24.94,18.48,24.85,18.46,24.76z"/>
	<path class="st29" d="M16.88,23.54c-0.04,0.02-0.07,0.03-0.11,0.05c-0.04,0.05-0.09,0.03-0.14,0.03c-0.05-0.02-0.09-0.04-0.13-0.08
		C16.63,23.49,16.76,23.49,16.88,23.54z"/>
	<path class="st30" d="M17.75,23.83c0,0.04-0.01,0.07-0.01,0.11c-0.08-0.05-0.19-0.06-0.2-0.19C17.63,23.74,17.69,23.77,17.75,23.83
		z"/>
	<path class="st24" d="M15.65,23.89c-0.08,0.06-0.13,0.16-0.25,0.16c0.01-0.12,0.12-0.15,0.2-0.2
		C15.65,23.83,15.65,23.86,15.65,23.89z"/>
	<path class="st31" d="M16,23.65c0.02,0.02,0.04,0.04,0.06,0.05c-0.05,0.07-0.15,0.04-0.21,0.09c-0.02-0.01-0.05-0.01-0.06-0.05
		C15.84,23.66,15.92,23.65,16,23.65z"/>
	<path class="st32" d="M14.79,25.82c0-0.01,0-0.02-0.01-0.03c0.07,0.09,0.04,0.19,0.06,0.29c0.02,0.06,0,0.07-0.05,0.06
		C14.7,26.04,14.77,25.93,14.79,25.82z"/>
	<path class="st33" d="M14.98,24.66c-0.02-0.02-0.03-0.04-0.05-0.06c0-0.09,0.07-0.13,0.12-0.19c0.03,0,0.04,0.01,0.03,0.04
		C15.05,24.53,15.01,24.6,14.98,24.66z"/>
	<path class="st34" d="M14.79,26.14c0.02-0.02,0.03-0.04,0.05-0.06c0.06,0.08,0.08,0.17,0.1,0.26
		C14.78,26.36,14.82,26.22,14.79,26.14z"/>
	<path class="st35" d="M15.09,24.46c-0.01-0.01-0.02-0.03-0.03-0.04c0.03-0.1,0.07-0.19,0.19-0.2
		C15.24,24.33,15.14,24.38,15.09,24.46z"/>
	<path class="st8" d="M15.79,23.75c0.02,0.02,0.04,0.03,0.06,0.05c-0.07,0.03-0.14,0.07-0.2,0.1c-0.02-0.01-0.03-0.03-0.05-0.04
		C15.63,23.75,15.72,23.76,15.79,23.75z"/>
	<path class="st36" d="M16.24,27.42c0.09,0.02,0.19-0.01,0.28,0.05c-0.01,0.03-0.04,0.04-0.06,0.05
		C16.37,27.52,16.27,27.55,16.24,27.42z"/>
	<path class="st17" d="M16.47,27.52c0.02-0.02,0.04-0.03,0.06-0.05c0.11,0,0.23,0,0.34,0c0.06-0.02,0.07,0,0.06,0.05
		C16.77,27.55,16.62,27.55,16.47,27.52z"/>
	<path class="st37" d="M16.92,27.52c-0.02-0.02-0.04-0.04-0.06-0.05c0.06-0.05,0.14-0.04,0.22-0.04c0.02,0.01,0.05,0.02,0.06,0.05
		C17.07,27.52,17,27.53,16.92,27.52z"/>
	<path class="st38" d="M15.08,26.56c0,0.02,0.01,0.04,0.01,0.05c-0.16,0.01-0.15-0.11-0.15-0.21C14.98,26.45,15.03,26.5,15.08,26.56
		z"/>
	<path class="st39" d="M17.14,27.48c-0.02-0.02-0.04-0.04-0.06-0.05c0.06-0.06,0.13-0.05,0.2-0.06c0,0.02,0,0.04,0,0.07
		C17.24,27.47,17.19,27.48,17.14,27.48z"/>
	<path class="st32" d="M15.09,26.64c0.08,0.05,0.15,0.09,0.15,0.2C15.1,26.83,15.08,26.75,15.09,26.64z"/>
	<path class="st33" d="M16.51,23.54c0.04,0.02,0.07,0.03,0.11,0.05c-0.03,0.04-0.06,0.03-0.1,0.01c-0.07-0.02-0.15,0.02-0.2-0.05
		C16.38,23.55,16.44,23.55,16.51,23.54z"/>
	<path class="st40" d="M14.73,25.38c0-0.05-0.01-0.11-0.01-0.16c0.01-0.05-0.02-0.11,0.05-0.14c0.01,0.1,0.02,0.2,0,0.3
		C14.76,25.4,14.75,25.4,14.73,25.38z"/>
	<path class="st0" d="M11.12,27.1c-0.07-0.09-0.04-0.23-0.16-0.29c-0.77-0.43-1.53-0.86-2.34-1.22c0.26-0.11,0.51-0.21,0.75-0.33
		c0.13-0.07,0.16-0.23,0.3-0.26c0.29-0.05,0.34-0.3,0.42-0.51c0.04-0.11-0.3-0.46-0.47-0.51c-0.79-0.23-1.56-0.16-2.31,0.16
		c-0.19,0.08-0.29,0.25-0.39,0.42c-0.03,0.05-0.06,0.11,0.01,0.16c0.07,0.04,0.11-0.01,0.15-0.06c0.08-0.1,0.15-0.21,0.25-0.29
		c0.15-0.13,0.33-0.15,0.49-0.04c0.16,0.1,0.03,0.24,0.02,0.37c-0.01,0.05-0.02,0.1-0.03,0.15c-0.08,0.24-0.12,0.5-0.28,0.7
		c-0.08,0.1-0.24,0.15-0.07,0.3c0.03,0.03,0.02,0.13-0.03,0.13c-0.2,0-0.21,0.23-0.37,0.28c-0.06,0.02-0.09,0.07-0.04,0.11
		c0.1,0.06,0.03,0.13,0.04,0.2c0.01,0.29-0.03,0.58-0.06,0.88c-0.01,0.05-0.02,0.16,0.05,0.13c0.14-0.05,0.26-0.14,0.42-0.17
		c0.03-0.01,0.06-0.13,0.07-0.2c0.07-0.38,0.15-0.74,0.28-1.11c0.05-0.15,0.13-0.2,0.28-0.17c0.49,0.1,0.94,0.33,1.39,0.53
		c0.22,0.1,0.46,0.21,0.67,0.36c0.02,0.02,0.04,0.02,0.06,0.01c0.07-0.15,0.16-0.04,0.25-0.02c0.1,0.01,0.11,0.1,0.16,0.16
		c0.01,0,0.03-0.01,0.04-0.02c0.03,0.04,0.06,0.07,0.11,0.08c0.06,0,0.1-0.03,0.1,0.08c0,0.15,0.15,0.05,0.23,0.09
		C11.13,27.21,11.18,27.16,11.12,27.1z M8,25.43c0.19-0.39,0.28-0.8,0.42-1.18c0.07-0.19,0.33-0.14,0.5-0.11
		c0.15,0.03,0.3,0.1,0.44,0.17c0.27,0.13,0.32,0.38,0.1,0.59C9.07,25.28,8.58,25.44,8,25.43z"/>
	<path class="st0" d="M10.45,26.8c-0.09,0-0.18,0-0.26,0.01c0.02-0.06-0.06-0.15,0-0.16c0.09-0.01,0.19,0.03,0.26,0.1
		C10.45,26.77,10.45,26.79,10.45,26.8z"/>
	<path class="st0" d="M6.34,27.56c-0.11-0.22-0.19-0.45-0.27-0.68c-0.07-0.2-0.1-0.41-0.19-0.59c-0.09-0.17-0.15-0.35-0.22-0.53
		c-0.11-0.29-0.18-0.59-0.31-0.88c-0.12-0.26-0.21-0.53-0.08-0.83c0.04-0.09,0.25-0.21,0.07-0.31c-0.15-0.08-0.2,0.13-0.29,0.21
		c-0.01,0.01-0.03,0.02-0.04,0.02c-0.05-0.07-0.05-0.24-0.19-0.15c-0.09,0.06-0.31,0.09-0.16,0.31c0.12,0.18,0.09,0.39,0.01,0.56
		c-0.31,0.63-0.53,1.29-0.79,1.94c-0.03,0.06-0.04,0.14-0.11,0.16c-0.2,0.07-0.29,0.24-0.39,0.43c0.27,0.02,0.23,0.18,0.15,0.34
		c-0.09,0.19-0.2,0.37-0.3,0.55c-0.05,0.09-0.19,0.21-0.06,0.28c0.16,0.09,0.17-0.11,0.22-0.2c0.16-0.3,0.29-0.62,0.48-0.91
		c0.11-0.16,0.11-0.4,0.38-0.47c0.28-0.07,0.55-0.17,0.83-0.22c0.24-0.04,0.43-0.03,0.48,0.27c0.02,0.12,0.07,0.27,0.16,0.33
		c0.1,0.07,0.07,0.15,0.09,0.22c0.06,0.06,0.18-0.17,0.22,0.04c0.02,0.07-0.11,0.08-0.06,0.16c0.05,0.01,0.1-0.09,0.14-0.02
		c0.05,0.09-0.1,0.05-0.1,0.12c0,0,0,0,0,0c0,0,0,0,0,0c0.04,0.02,0.08,0.04,0.12,0.05c0.08,0.04,0.18,0.09,0.26,0.01
		C6.46,27.7,6.38,27.62,6.34,27.56z M5.28,26.33c-0.34,0.05-0.68,0.14-1.05,0.23c0.18-0.56,0.39-1.04,0.68-1.51
		c0.21,0.36,0.24,0.77,0.42,1.13C5.35,26.26,5.32,26.33,5.28,26.33z M5.49,26.33c0.03-0.2-0.17-0.34-0.13-0.54
		c0-0.01-0.01-0.02-0.01-0.02c-0.05-0.08-0.1-0.17-0.09-0.27c0-0.01,0.05-0.02,0.06-0.01c0.1,0.07,0.12,0.18,0.1,0.3
		c0.06,0.16,0.13,0.32,0.2,0.47c0.02,0.05,0.04,0.09-0.03,0.11C5.54,26.38,5.48,26.37,5.49,26.33z M5.61,26.53
		c0.22,0.13,0.2,0.32,0.23,0.49C5.66,26.92,5.65,26.74,5.61,26.53z"/>
	<path class="st1" d="M16.57,24.31c0.08,0.1,0.07,0.2,0.01,0.3C16.57,24.51,16.57,24.41,16.57,24.31z"/>
	<path class="st1" d="M16.81,25.5c0.14-0.04,0.14,0.05,0.16,0.15C16.9,25.62,16.85,25.56,16.81,25.5z"/>
	<path class="st41" d="M16.52,23.6c0.03,0,0.06-0.01,0.1-0.01c0.05,0,0.1,0,0.15,0c0.09,0.02,0.17,0.04,0.26,0.05
		c-0.18,0-0.36,0-0.54,0C16.5,23.63,16.51,23.62,16.52,23.6z"/>
	<path class="st38" d="M14.73,25.38c0.01,0,0.03,0,0.04,0c0,0.1,0,0.2,0,0.3C14.7,25.59,14.75,25.48,14.73,25.38z"/>
</g>
</svg>
