<svg width="738" height="738" xmlns="http://www.w3.org/2000/svg" xmlns:xlink="http://www.w3.org/1999/xlink" xml:space="preserve" overflow="hidden"><g transform="translate(-3121 -513)"><g><g><g><g><path d="M3337.08 1158.25C3337.08 1158.25 3382.96 1127.67 3490 1127.67M3490 1127.67C3597.04 1127.67 3642.92 1158.25 3642.92 1158.25M3490 1127.67 3490 1035.92M3312.62 1035.92 3667.38 1035.92C3701.64 1035.92 3718.77 1035.92 3731.85 1029.25 3743.36 1023.39 3752.72 1014.03 3758.58 1002.52 3765.25 989.436 3765.25 972.306 3765.25 938.05L3765.25 705.617C3765.25 671.36 3765.25 654.232 3758.58 641.148 3752.72 629.638 3743.36 620.281 3731.85 614.417 3718.77 607.75 3701.64 607.75 3667.38 607.75L3312.62 607.75C3278.36 607.75 3261.23 607.75 3248.15 614.417 3236.64 620.281 3227.28 629.638 3221.42 641.148 3214.75 654.232 3214.75 671.36 3214.75 705.617L3214.75 938.05C3214.75 972.306 3214.75 989.436 3221.42 1002.52 3227.28 1014.03 3236.64 1023.39 3248.15 1029.25 3261.23 1035.92 3278.36 1035.92 3312.62 1035.92Z" stroke="#666666" stroke-width="61.1667" stroke-linecap="round" stroke-linejoin="round" stroke-miterlimit="4" stroke-opacity="1" fill="none" fill-rule="nonzero"/></g></g></g><path d="M3305.71 709.541 3314.01 703.167 3366.73 771.814 3373.45 708.905 3383.86 710.019 3378.33 761.676 3405.53 750.573 3426.06 800.876 3404.84 809.527 3407.55 816.649C3422.33 854.928 3474.11 958.17 3535.52 975.956 3549.14 979.893 3570.79 982.503 3601.39 959.772 3617 948.175 3626.65 937.102 3631.77 924.923 3638.93 907.909 3636.58 890.337 3633.63 868.041 3630.24 842.498 3626.4 813.523 3638.99 783.568 3641.56 777.465 3644.77 771.49 3648.52 765.786 3669.22 734.412 3699.58 710.266 3736.35 695.972L3767.04 684.021 3790.93 745.421 3760.24 757.354C3735.93 766.813 3716.84 781.857 3703.49 802.068 3702.04 804.274 3700.86 806.503 3699.86 808.874 3694.45 821.747 3695.9 836.55 3698.93 859.39 3702.32 884.948 3706.56 916.776 3692.43 950.394 3682.78 973.337 3665.36 994.276 3640.67 1012.63 3590.74 1049.75 3545.9 1047.56 3517.07 1039.17 3413.42 1009.06 3352.63 857.419 3346.06 840.243L3343.85 834.411 3326.58 841.46 3306.06 791.155 3338.92 777.748 3289.19 756.844 3293.24 747.202 3354.35 772.892 3305.71 709.541Z" stroke="#558ED5" stroke-width="2.04301" stroke-linecap="butt" stroke-linejoin="miter" stroke-miterlimit="8" stroke-opacity="1" fill="#3285DD" fill-rule="evenodd" fill-opacity="1"/></g></g></svg>