<svg width="32" height="32" viewBox="0 0 32 32" fill="none" xmlns="http://www.w3.org/2000/svg">
<mask id="path-1-outside-1_2157_3279" maskUnits="userSpaceOnUse" x="1" y="1" width="30" height="30" fill="black">
<rect fill="white" x="1" y="1" width="30" height="30"/>
<path d="M2.56322 8.03448C2.4023 8.03448 2.2682 7.98084 2.16092 7.87356C2.05364 7.76628 2 7.63218 2 7.47126V3.12644C2 2.8046 2.10728 2.5364 2.32184 2.32184C2.5364 2.10728 2.8046 2 3.12644 2H7.47126C7.63218 2 7.76628 2.05364 7.87356 2.16092C7.98084 2.2682 8.03448 2.4023 8.03448 2.56322C8.03448 2.72414 7.98084 2.85824 7.87356 2.96552C7.76628 3.0728 7.63218 3.12644 7.47126 3.12644H3.12644V7.47126C3.12644 7.63218 3.0728 7.76628 2.96552 7.87356C2.85824 7.98084 2.72414 8.03448 2.56322 8.03448ZM3.12644 30C2.8046 30 2.5364 29.8927 2.32184 29.6782C2.10728 29.4636 2 29.1954 2 28.8736V24.5287C2 24.3678 2.05364 24.2337 2.16092 24.1264C2.2682 24.0192 2.4023 23.9655 2.56322 23.9655C2.72414 23.9655 2.85824 24.0192 2.96552 24.1264C3.0728 24.2337 3.12644 24.3678 3.12644 24.5287V28.8736H7.47126C7.63218 28.8736 7.76628 28.9272 7.87356 29.0345C7.98084 29.1418 8.03448 29.2759 8.03448 29.4368C8.03448 29.5977 7.98084 29.7318 7.87356 29.8391C7.76628 29.9464 7.63218 30 7.47126 30H3.12644ZM24.5287 30C24.3678 30 24.2337 29.9464 24.1264 29.8391C24.0192 29.7318 23.9655 29.5977 23.9655 29.4368C23.9655 29.2759 24.0192 29.1418 24.1264 29.0345C24.2337 28.9272 24.3678 28.8736 24.5287 28.8736H28.8736V24.5287C28.8736 24.3678 28.9272 24.2337 29.0345 24.1264C29.1418 24.0192 29.2759 23.9655 29.4368 23.9655C29.5977 23.9655 29.7318 24.0192 29.8391 24.1264C29.9464 24.2337 30 24.3678 30 24.5287V28.8736C30 29.1954 29.8927 29.4636 29.6782 29.6782C29.4636 29.8927 29.1954 30 28.8736 30H24.5287ZM29.4368 8.03448C29.2759 8.03448 29.1418 7.98084 29.0345 7.87356C28.9272 7.76628 28.8736 7.63218 28.8736 7.47126V3.12644H24.5287C24.3678 3.12644 24.2337 3.0728 24.1264 2.96552C24.0192 2.85824 23.9655 2.72414 23.9655 2.56322C23.9655 2.4023 24.0192 2.2682 24.1264 2.16092C24.2337 2.05364 24.3678 2 24.5287 2H28.8736C29.1954 2 29.4636 2.10728 29.6782 2.32184C29.8927 2.5364 30 2.8046 30 3.12644V7.47126C30 7.63218 29.9464 7.76628 29.8391 7.87356C29.7318 7.98084 29.5977 8.03448 29.4368 8.03448ZM23.6839 23.6839H25.4943V25.4943H23.6839V23.6839ZM23.6839 20.0632H25.4943V21.8736H23.6839V20.0632ZM21.8736 21.8736H23.6839V23.6839H21.8736V21.8736ZM20.0632 23.6839H21.8736V25.4943H20.0632V23.6839ZM18.2529 21.8736H20.0632V23.6839H18.2529V21.8736ZM21.8736 18.2529H23.6839V20.0632H21.8736V18.2529ZM20.0632 20.0632H21.8736V21.8736H20.0632V20.0632ZM18.2529 18.2529H20.0632V20.0632H18.2529V18.2529ZM25.4943 6.50575V13.7471H18.2529V6.50575H25.4943ZM13.7471 18.2529V25.4943H6.50575V18.2529H13.7471ZM13.7471 6.50575V13.7471H6.50575V6.50575H13.7471ZM12.6207 24.3678V19.3793H7.63218V24.3678H12.6207ZM12.6207 12.6207V7.63218H7.63218V12.6207H12.6207ZM24.3678 12.6207V7.63218H19.3793V12.6207H24.3678Z"/>
</mask>
<path d="M2.56322 8.03448C2.4023 8.03448 2.2682 7.98084 2.16092 7.87356C2.05364 7.76628 2 7.63218 2 7.47126V3.12644C2 2.8046 2.10728 2.5364 2.32184 2.32184C2.5364 2.10728 2.8046 2 3.12644 2H7.47126C7.63218 2 7.76628 2.05364 7.87356 2.16092C7.98084 2.2682 8.03448 2.4023 8.03448 2.56322C8.03448 2.72414 7.98084 2.85824 7.87356 2.96552C7.76628 3.0728 7.63218 3.12644 7.47126 3.12644H3.12644V7.47126C3.12644 7.63218 3.0728 7.76628 2.96552 7.87356C2.85824 7.98084 2.72414 8.03448 2.56322 8.03448ZM3.12644 30C2.8046 30 2.5364 29.8927 2.32184 29.6782C2.10728 29.4636 2 29.1954 2 28.8736V24.5287C2 24.3678 2.05364 24.2337 2.16092 24.1264C2.2682 24.0192 2.4023 23.9655 2.56322 23.9655C2.72414 23.9655 2.85824 24.0192 2.96552 24.1264C3.0728 24.2337 3.12644 24.3678 3.12644 24.5287V28.8736H7.47126C7.63218 28.8736 7.76628 28.9272 7.87356 29.0345C7.98084 29.1418 8.03448 29.2759 8.03448 29.4368C8.03448 29.5977 7.98084 29.7318 7.87356 29.8391C7.76628 29.9464 7.63218 30 7.47126 30H3.12644ZM24.5287 30C24.3678 30 24.2337 29.9464 24.1264 29.8391C24.0192 29.7318 23.9655 29.5977 23.9655 29.4368C23.9655 29.2759 24.0192 29.1418 24.1264 29.0345C24.2337 28.9272 24.3678 28.8736 24.5287 28.8736H28.8736V24.5287C28.8736 24.3678 28.9272 24.2337 29.0345 24.1264C29.1418 24.0192 29.2759 23.9655 29.4368 23.9655C29.5977 23.9655 29.7318 24.0192 29.8391 24.1264C29.9464 24.2337 30 24.3678 30 24.5287V28.8736C30 29.1954 29.8927 29.4636 29.6782 29.6782C29.4636 29.8927 29.1954 30 28.8736 30H24.5287ZM29.4368 8.03448C29.2759 8.03448 29.1418 7.98084 29.0345 7.87356C28.9272 7.76628 28.8736 7.63218 28.8736 7.47126V3.12644H24.5287C24.3678 3.12644 24.2337 3.0728 24.1264 2.96552C24.0192 2.85824 23.9655 2.72414 23.9655 2.56322C23.9655 2.4023 24.0192 2.2682 24.1264 2.16092C24.2337 2.05364 24.3678 2 24.5287 2H28.8736C29.1954 2 29.4636 2.10728 29.6782 2.32184C29.8927 2.5364 30 2.8046 30 3.12644V7.47126C30 7.63218 29.9464 7.76628 29.8391 7.87356C29.7318 7.98084 29.5977 8.03448 29.4368 8.03448ZM23.6839 23.6839H25.4943V25.4943H23.6839V23.6839ZM23.6839 20.0632H25.4943V21.8736H23.6839V20.0632ZM21.8736 21.8736H23.6839V23.6839H21.8736V21.8736ZM20.0632 23.6839H21.8736V25.4943H20.0632V23.6839ZM18.2529 21.8736H20.0632V23.6839H18.2529V21.8736ZM21.8736 18.2529H23.6839V20.0632H21.8736V18.2529ZM20.0632 20.0632H21.8736V21.8736H20.0632V20.0632ZM18.2529 18.2529H20.0632V20.0632H18.2529V18.2529ZM25.4943 6.50575V13.7471H18.2529V6.50575H25.4943ZM13.7471 18.2529V25.4943H6.50575V18.2529H13.7471ZM13.7471 6.50575V13.7471H6.50575V6.50575H13.7471ZM12.6207 24.3678V19.3793H7.63218V24.3678H12.6207ZM12.6207 12.6207V7.63218H7.63218V12.6207H12.6207ZM24.3678 12.6207V7.63218H19.3793V12.6207H24.3678Z" fill="#666666"/>
<path d="M3.12644 3.12644V2.92644H2.92644V3.12644H3.12644ZM3.12644 28.8736H2.92644V29.0736H3.12644V28.8736ZM28.8736 28.8736V29.0736H29.0736V28.8736H28.8736ZM28.8736 3.12644H29.0736V2.92644H28.8736V3.12644ZM25.4943 23.6839H25.6943V23.4839H25.4943V23.6839ZM25.4943 25.4943V25.6943H25.6943V25.4943H25.4943ZM23.6839 25.4943H23.4839V25.6943H23.6839V25.4943ZM25.4943 20.0632H25.6943V19.8632H25.4943V20.0632ZM25.4943 21.8736V22.0736H25.6943V21.8736H25.4943ZM21.8736 25.4943V25.6943H22.0736V25.4943H21.8736ZM20.0632 25.4943H19.8632V25.6943H20.0632V25.4943ZM18.2529 21.8736V21.6736H18.0529V21.8736H18.2529ZM18.2529 23.6839H18.0529V23.8839H18.2529V23.6839ZM21.8736 18.2529V18.0529H21.6736V18.2529H21.8736ZM23.6839 18.2529H23.8839V18.0529H23.6839V18.2529ZM18.2529 18.2529V18.0529H18.0529V18.2529H18.2529ZM20.0632 18.2529H20.2632V18.0529H20.0632V18.2529ZM18.2529 20.0632H18.0529V20.2632H18.2529V20.0632ZM25.4943 6.50575H25.6943V6.30575H25.4943V6.50575ZM25.4943 13.7471V13.9471H25.6943V13.7471H25.4943ZM18.2529 13.7471H18.0529V13.9471H18.2529V13.7471ZM18.2529 6.50575V6.30575H18.0529V6.50575H18.2529ZM13.7471 18.2529H13.9471V18.0529H13.7471V18.2529ZM13.7471 25.4943V25.6943H13.9471V25.4943H13.7471ZM6.50575 25.4943H6.30575V25.6943H6.50575V25.4943ZM6.50575 18.2529V18.0529H6.30575V18.2529H6.50575ZM13.7471 6.50575H13.9471V6.30575H13.7471V6.50575ZM13.7471 13.7471V13.9471H13.9471V13.7471H13.7471ZM6.50575 13.7471H6.30575V13.9471H6.50575V13.7471ZM6.50575 6.50575V6.30575H6.30575V6.50575H6.50575ZM12.6207 24.3678V24.5678H12.8207V24.3678H12.6207ZM12.6207 19.3793H12.8207V19.1793H12.6207V19.3793ZM7.63218 19.3793V19.1793H7.43218V19.3793H7.63218ZM7.63218 24.3678H7.43218V24.5678H7.63218V24.3678ZM12.6207 12.6207V12.8207H12.8207V12.6207H12.6207ZM12.6207 7.63218H12.8207V7.43218H12.6207V7.63218ZM7.63218 7.63218V7.43218H7.43218V7.63218H7.63218ZM7.63218 12.6207H7.43218V12.8207H7.63218V12.6207ZM24.3678 12.6207V12.8207H24.5678V12.6207H24.3678ZM24.3678 7.63218H24.5678V7.43218H24.3678V7.63218ZM19.3793 7.63218V7.43218H19.1793V7.63218H19.3793ZM19.3793 12.6207H19.1793V12.8207H19.3793V12.6207ZM2.56322 7.83448C2.45177 7.83448 2.36966 7.79946 2.30234 7.73214L2.0195 8.01498C2.16674 8.16222 2.35283 8.23448 2.56322 8.23448V7.83448ZM2.30234 7.73214C2.23502 7.66482 2.2 7.58271 2.2 7.47126H1.8C1.8 7.68166 1.87226 7.86775 2.0195 8.01498L2.30234 7.73214ZM2.2 7.47126V3.12644H1.8V7.47126H2.2ZM2.2 3.12644C2.2 2.85407 2.28866 2.63786 2.46326 2.46326L2.18042 2.18042C1.9259 2.43494 1.8 2.75513 1.8 3.12644H2.2ZM2.46326 2.46326C2.63786 2.28866 2.85407 2.2 3.12644 2.2V1.8C2.75513 1.8 2.43494 1.9259 2.18042 2.18042L2.46326 2.46326ZM3.12644 2.2H7.47126V1.8H3.12644V2.2ZM7.47126 2.2C7.58271 2.2 7.66482 2.23502 7.73214 2.30234L8.01498 2.0195C7.86775 1.87226 7.68166 1.8 7.47126 1.8V2.2ZM7.73214 2.30234C7.79946 2.36966 7.83448 2.45177 7.83448 2.56322H8.23448C8.23448 2.35283 8.16222 2.16674 8.01498 2.0195L7.73214 2.30234ZM7.83448 2.56322C7.83448 2.67467 7.79946 2.75678 7.73214 2.8241L8.01498 3.10694C8.16222 2.9597 8.23448 2.77361 8.23448 2.56322H7.83448ZM7.73214 2.8241C7.66482 2.89142 7.58271 2.92644 7.47126 2.92644V3.32644C7.68166 3.32644 7.86775 3.25418 8.01498 3.10694L7.73214 2.8241ZM7.47126 2.92644H3.12644V3.32644H7.47126V2.92644ZM2.92644 3.12644V7.47126H3.32644V3.12644H2.92644ZM2.92644 7.47126C2.92644 7.58271 2.89142 7.66482 2.8241 7.73214L3.10694 8.01498C3.25418 7.86775 3.32644 7.68166 3.32644 7.47126H2.92644ZM2.8241 7.73214C2.75678 7.79946 2.67467 7.83448 2.56322 7.83448V8.23448C2.77361 8.23448 2.9597 8.16222 3.10694 8.01498L2.8241 7.73214ZM3.12644 29.8C2.85407 29.8 2.63786 29.7113 2.46326 29.5367L2.18042 29.8196C2.43494 30.0741 2.75512 30.2 3.12644 30.2V29.8ZM2.46326 29.5367C2.28866 29.3621 2.2 29.1459 2.2 28.8736H1.8C1.8 29.2449 1.9259 29.5651 2.18042 29.8196L2.46326 29.5367ZM2.2 28.8736V24.5287H1.8V28.8736H2.2ZM2.2 24.5287C2.2 24.4173 2.23502 24.3352 2.30234 24.2679L2.0195 23.985C1.87226 24.1322 1.8 24.3183 1.8 24.5287H2.2ZM2.30234 24.2679C2.36966 24.2005 2.45177 24.1655 2.56322 24.1655V23.7655C2.35283 23.7655 2.16674 23.8378 2.0195 23.985L2.30234 24.2679ZM2.56322 24.1655C2.67467 24.1655 2.75678 24.2005 2.8241 24.2679L3.10694 23.985C2.9597 23.8378 2.77361 23.7655 2.56322 23.7655V24.1655ZM2.8241 24.2679C2.89142 24.3352 2.92644 24.4173 2.92644 24.5287H3.32644C3.32644 24.3183 3.25418 24.1322 3.10694 23.985L2.8241 24.2679ZM2.92644 24.5287V28.8736H3.32644V24.5287H2.92644ZM3.12644 29.0736H7.47126V28.6736H3.12644V29.0736ZM7.47126 29.0736C7.58271 29.0736 7.66482 29.1086 7.73214 29.1759L8.01498 28.8931C7.86774 28.7458 7.68166 28.6736 7.47126 28.6736V29.0736ZM7.73214 29.1759C7.79946 29.2432 7.83448 29.3253 7.83448 29.4368H8.23448C8.23448 29.2264 8.16222 29.0403 8.01498 28.8931L7.73214 29.1759ZM7.83448 29.4368C7.83448 29.5482 7.79946 29.6303 7.73214 29.6977L8.01498 29.9805C8.16222 29.8333 8.23448 29.6472 8.23448 29.4368H7.83448ZM7.73214 29.6977C7.66482 29.765 7.58271 29.8 7.47126 29.8V30.2C7.68166 30.2 7.86774 30.1277 8.01498 29.9805L7.73214 29.6977ZM7.47126 29.8H3.12644V30.2H7.47126V29.8ZM24.5287 29.8C24.4173 29.8 24.3352 29.765 24.2679 29.6977L23.985 29.9805C24.1322 30.1277 24.3183 30.2 24.5287 30.2V29.8ZM24.2679 29.6977C24.2005 29.6303 24.1655 29.5482 24.1655 29.4368H23.7655C23.7655 29.6472 23.8378 29.8333 23.985 29.9805L24.2679 29.6977ZM24.1655 29.4368C24.1655 29.3253 24.2005 29.2432 24.2679 29.1759L23.985 28.8931C23.8378 29.0403 23.7655 29.2264 23.7655 29.4368H24.1655ZM24.2679 29.1759C24.3352 29.1086 24.4173 29.0736 24.5287 29.0736V28.6736C24.3183 28.6736 24.1322 28.7458 23.985 28.8931L24.2679 29.1759ZM24.5287 29.0736H28.8736V28.6736H24.5287V29.0736ZM29.0736 28.8736V24.5287H28.6736V28.8736H29.0736ZM29.0736 24.5287C29.0736 24.4173 29.1086 24.3352 29.1759 24.2679L28.8931 23.985C28.7458 24.1322 28.6736 24.3183 28.6736 24.5287H29.0736ZM29.1759 24.2679C29.2432 24.2005 29.3253 24.1655 29.4368 24.1655V23.7655C29.2264 23.7655 29.0403 23.8378 28.8931 23.985L29.1759 24.2679ZM29.4368 24.1655C29.5482 24.1655 29.6303 24.2005 29.6977 24.2679L29.9805 23.985C29.8333 23.8378 29.6472 23.7655 29.4368 23.7655V24.1655ZM29.6977 24.2679C29.765 24.3352 29.8 24.4173 29.8 24.5287H30.2C30.2 24.3183 30.1277 24.1322 29.9805 23.985L29.6977 24.2679ZM29.8 24.5287V28.8736H30.2V24.5287H29.8ZM29.8 28.8736C29.8 29.1459 29.7113 29.3621 29.5367 29.5367L29.8196 29.8196C30.0741 29.5651 30.2 29.2449 30.2 28.8736H29.8ZM29.5367 29.5367C29.3621 29.7113 29.1459 29.8 28.8736 29.8V30.2C29.2449 30.2 29.5651 30.0741 29.8196 29.8196L29.5367 29.5367ZM28.8736 29.8H24.5287V30.2H28.8736V29.8ZM29.4368 7.83448C29.3253 7.83448 29.2432 7.79946 29.1759 7.73214L28.8931 8.01498C29.0403 8.16222 29.2264 8.23448 29.4368 8.23448V7.83448ZM29.1759 7.73214C29.1086 7.66482 29.0736 7.58271 29.0736 7.47126H28.6736C28.6736 7.68166 28.7458 7.86774 28.8931 8.01498L29.1759 7.73214ZM29.0736 7.47126V3.12644H28.6736V7.47126H29.0736ZM28.8736 2.92644H24.5287V3.32644H28.8736V2.92644ZM24.5287 2.92644C24.4173 2.92644 24.3352 2.89142 24.2679 2.8241L23.985 3.10694C24.1322 3.25418 24.3183 3.32644 24.5287 3.32644V2.92644ZM24.2679 2.8241C24.2005 2.75678 24.1655 2.67467 24.1655 2.56322H23.7655C23.7655 2.77361 23.8378 2.9597 23.985 3.10694L24.2679 2.8241ZM24.1655 2.56322C24.1655 2.45177 24.2005 2.36966 24.2679 2.30234L23.985 2.0195C23.8378 2.16674 23.7655 2.35283 23.7655 2.56322H24.1655ZM24.2679 2.30234C24.3352 2.23502 24.4173 2.2 24.5287 2.2V1.8C24.3183 1.8 24.1322 1.87226 23.985 2.0195L24.2679 2.30234ZM24.5287 2.2H28.8736V1.8H24.5287V2.2ZM28.8736 2.2C29.1459 2.2 29.3621 2.28866 29.5367 2.46326L29.8196 2.18042C29.5651 1.9259 29.2449 1.8 28.8736 1.8V2.2ZM29.5367 2.46326C29.7113 2.63786 29.8 2.85407 29.8 3.12644H30.2C30.2 2.75512 30.0741 2.43494 29.8196 2.18042L29.5367 2.46326ZM29.8 3.12644V7.47126H30.2V3.12644H29.8ZM29.8 7.47126C29.8 7.58271 29.765 7.66482 29.6977 7.73214L29.9805 8.01498C30.1277 7.86774 30.2 7.68166 30.2 7.47126H29.8ZM29.6977 7.73214C29.6303 7.79946 29.5482 7.83448 29.4368 7.83448V8.23448C29.6472 8.23448 29.8333 8.16222 29.9805 8.01498L29.6977 7.73214ZM23.6839 23.8839H25.4943V23.4839H23.6839V23.8839ZM25.2943 23.6839V25.4943H25.6943V23.6839H25.2943ZM25.4943 25.2943H23.6839V25.6943H25.4943V25.2943ZM23.8839 25.4943V23.6839H23.4839V25.4943H23.8839ZM23.6839 20.2632H25.4943V19.8632H23.6839V20.2632ZM25.2943 20.0632V21.8736H25.6943V20.0632H25.2943ZM25.4943 21.6736H23.6839V22.0736H25.4943V21.6736ZM23.8839 21.8736V20.0632H23.4839V21.8736H23.8839ZM21.8736 22.0736H23.6839V21.6736H21.8736V22.0736ZM23.4839 21.8736V23.6839H23.8839V21.8736H23.4839ZM23.6839 23.4839H21.8736V23.8839H23.6839V23.4839ZM22.0736 23.6839V21.8736H21.6736V23.6839H22.0736ZM20.0632 23.8839H21.8736V23.4839H20.0632V23.8839ZM21.6736 23.6839V25.4943H22.0736V23.6839H21.6736ZM21.8736 25.2943H20.0632V25.6943H21.8736V25.2943ZM20.2632 25.4943V23.6839H19.8632V25.4943H20.2632ZM18.2529 22.0736H20.0632V21.6736H18.2529V22.0736ZM19.8632 21.8736V23.6839H20.2632V21.8736H19.8632ZM20.0632 23.4839H18.2529V23.8839H20.0632V23.4839ZM18.4529 23.6839V21.8736H18.0529V23.6839H18.4529ZM21.8736 18.4529H23.6839V18.0529H21.8736V18.4529ZM23.4839 18.2529V20.0632H23.8839V18.2529H23.4839ZM23.6839 19.8632H21.8736V20.2632H23.6839V19.8632ZM22.0736 20.0632V18.2529H21.6736V20.0632H22.0736ZM20.0632 20.2632H21.8736V19.8632H20.0632V20.2632ZM21.6736 20.0632V21.8736H22.0736V20.0632H21.6736ZM21.8736 21.6736H20.0632V22.0736H21.8736V21.6736ZM20.2632 21.8736V20.0632H19.8632V21.8736H20.2632ZM18.2529 18.4529H20.0632V18.0529H18.2529V18.4529ZM19.8632 18.2529V20.0632H20.2632V18.2529H19.8632ZM20.0632 19.8632H18.2529V20.2632H20.0632V19.8632ZM18.4529 20.0632V18.2529H18.0529V20.0632H18.4529ZM25.2943 6.50575V13.7471H25.6943V6.50575H25.2943ZM25.4943 13.5471H18.2529V13.9471H25.4943V13.5471ZM18.4529 13.7471V6.50575H18.0529V13.7471H18.4529ZM18.2529 6.70575H25.4943V6.30575H18.2529V6.70575ZM13.5471 18.2529V25.4943H13.9471V18.2529H13.5471ZM13.7471 25.2943H6.50575V25.6943H13.7471V25.2943ZM6.70575 25.4943V18.2529H6.30575V25.4943H6.70575ZM6.50575 18.4529H13.7471V18.0529H6.50575V18.4529ZM13.5471 6.50575V13.7471H13.9471V6.50575H13.5471ZM13.7471 13.5471H6.50575V13.9471H13.7471V13.5471ZM6.70575 13.7471V6.50575H6.30575V13.7471H6.70575ZM6.50575 6.70575H13.7471V6.30575H6.50575V6.70575ZM12.8207 24.3678V19.3793H12.4207V24.3678H12.8207ZM12.6207 19.1793H7.63218V19.5793H12.6207V19.1793ZM7.43218 19.3793V24.3678H7.83218V19.3793H7.43218ZM7.63218 24.5678H12.6207V24.1678H7.63218V24.5678ZM12.8207 12.6207V7.63218H12.4207V12.6207H12.8207ZM12.6207 7.43218H7.63218V7.83218H12.6207V7.43218ZM7.43218 7.63218V12.6207H7.83218V7.63218H7.43218ZM7.63218 12.8207H12.6207V12.4207H7.63218V12.8207ZM24.5678 12.6207V7.63218H24.1678V12.6207H24.5678ZM24.3678 7.43218H19.3793V7.83218H24.3678V7.43218ZM19.1793 7.63218V12.6207H19.5793V7.63218H19.1793ZM19.3793 12.8207H24.3678V12.4207H19.3793V12.8207Z" fill="#666666" mask="url(#path-1-outside-1_2157_3279)"/>
<path d="M2.09021 7.94427C2.21747 8.07153 2.37756 8.13448 2.56322 8.13448C2.74887 8.13448 2.90897 8.07153 3.03623 7.94427C3.16349 7.81701 3.22644 7.65692 3.22644 7.47126V3.22644H7.47126C7.65692 3.22644 7.81701 3.16349 7.94427 3.03623C8.07153 2.90897 8.13448 2.74887 8.13448 2.56322C8.13448 2.37756 8.07153 2.21747 7.94427 2.09021C7.81701 1.96295 7.65692 1.9 7.47126 1.9H3.12644C2.77986 1.9 2.48567 2.01659 2.25113 2.25113C2.01659 2.48567 1.9 2.77986 1.9 3.12644V7.47126C1.9 7.65692 1.96295 7.81701 2.09021 7.94427ZM2.25113 29.7489C2.48567 29.9834 2.77986 30.1 3.12644 30.1H7.47126C7.65692 30.1 7.81701 30.0371 7.94427 29.9098C8.07153 29.7825 8.13448 29.6224 8.13448 29.4368C8.13448 29.2511 8.07153 29.091 7.94427 28.9638C7.81701 28.8365 7.65692 28.7736 7.47126 28.7736H3.22644V24.5287C3.22644 24.3431 3.16349 24.183 3.03623 24.0557C2.90897 23.9285 2.74887 23.8655 2.56322 23.8655C2.37756 23.8655 2.21747 23.9285 2.09021 24.0557C1.96295 24.183 1.9 24.3431 1.9 24.5287V28.8736C1.9 29.2201 2.01659 29.5143 2.25113 29.7489ZM24.0557 29.9098C24.183 30.0371 24.3431 30.1 24.5287 30.1H28.8736C29.2201 30.1 29.5143 29.9834 29.7489 29.7489C29.9834 29.5143 30.1 29.2201 30.1 28.8736V24.5287C30.1 24.3431 30.0371 24.183 29.9098 24.0557C29.7825 23.9285 29.6224 23.8655 29.4368 23.8655C29.2511 23.8655 29.091 23.9285 28.9638 24.0557C28.8365 24.183 28.7736 24.3431 28.7736 24.5287V28.7736H24.5287C24.3431 28.7736 24.183 28.8365 24.0557 28.9638C23.9285 29.091 23.8655 29.2511 23.8655 29.4368C23.8655 29.6224 23.9285 29.7825 24.0557 29.9098ZM28.9638 7.94427C29.091 8.07153 29.2511 8.13448 29.4368 8.13448C29.6224 8.13448 29.7825 8.07153 29.9098 7.94427C30.0371 7.81701 30.1 7.65692 30.1 7.47126V3.12644C30.1 2.77986 29.9834 2.48567 29.7489 2.25113C29.5143 2.01659 29.2201 1.9 28.8736 1.9H24.5287C24.3431 1.9 24.183 1.96295 24.0557 2.09021C23.9285 2.21747 23.8655 2.37756 23.8655 2.56322C23.8655 2.74887 23.9285 2.90897 24.0557 3.03623C24.183 3.16349 24.3431 3.22644 24.5287 3.22644H28.7736V7.47126C28.7736 7.65692 28.8365 7.81701 28.9638 7.94427Z" fill="#1885DD" stroke="#209CFF" stroke-width="0.2"/>
</svg>
