<svg width="930" height="930" xmlns="http://www.w3.org/2000/svg" xmlns:xlink="http://www.w3.org/1999/xlink" xml:space="preserve" overflow="hidden"><g transform="translate(-1338 -1480)"><g><path d="M2248.08 2097.18 2238.62 2097.18 2238.62 1568.04C2238.62 1557.6 2230.15 1549.14 2219.7 1549.14L1907.55 1549.14 1907.55 1501.9C1907.55 1491.46 1899.08 1483 1888.63 1483L1718.37 1483C1707.92 1483 1699.45 1491.46 1699.45 1501.9L1699.45 1549.14 1387.3 1549.14C1376.85 1549.14 1368.38 1557.6 1368.38 1568.04L1368.38 2097.18 1358.92 2097.18C1348.47 2097.18 1340 2105.64 1340 2116.08L1340 2182.22C1340 2192.66 1348.47 2201.12 1358.92 2201.12L1647.12 2201.12 1550.8 2361.48 1583.24 2380.93 1691.24 2201.12 1784.58 2201.12 1784.58 2409 1822.42 2409 1822.42 2201.12 1915.76 2201.12 2023.76 2380.93 2056.2 2361.48 1959.88 2201.12 2248.08 2201.12C2258.53 2201.12 2267 2192.66 2267 2182.22L2267 2116.08C2267 2105.64 2258.53 2097.18 2248.08 2097.18ZM1737.29 1520.8 1869.71 1520.8 1869.71 1549.14 1737.29 1549.14 1737.29 1520.8ZM1406.21 1586.94 2200.79 1586.94 2200.79 2097.18 1406.21 2097.18 1406.21 1586.94ZM2229.16 2163.33 1377.84 2163.33 1377.84 2134.98 2229.16 2134.98 2229.16 2163.33Z" stroke="#666666" stroke-width="1.88711" stroke-linecap="butt" stroke-linejoin="miter" stroke-miterlimit="8" stroke-opacity="1" fill="#666666" fill-rule="evenodd" fill-opacity="1"/><path d="M1661.5 1653C1557.01 1653 1472 1737.79 1472 1842 1472 1946.21 1557.01 2031 1661.5 2031 1765.99 2031 1851 1946.21 1851 1842 1851 1737.79 1765.99 1653 1661.5 1653ZM1661.5 1993.2C1577.91 1993.2 1509.9 1925.37 1509.9 1842 1509.9 1765.03 1567.87 1701.36 1642.55 1692.02L1642.55 1842C1642.55 1852.44 1651.03 1860.9 1661.5 1860.9L1811.87 1860.9C1802.51 1935.38 1738.67 1993.2 1661.5 1993.2ZM1680.45 1823.1 1680.45 1692.02C1748.91 1700.58 1803.29 1754.82 1811.87 1823.1L1680.45 1823.1Z" stroke="#666666" stroke-width="1.88711" stroke-linecap="butt" stroke-linejoin="miter" stroke-miterlimit="8" stroke-opacity="1" fill="#3285DD" fill-rule="evenodd" fill-opacity="1"/><path d="M1992 1728 2125 1728 2125 1766 1992 1766Z" stroke="#666666" stroke-width="1.88711" stroke-linecap="butt" stroke-linejoin="miter" stroke-miterlimit="8" stroke-opacity="1" fill="#3285DD" fill-rule="evenodd" fill-opacity="1"/><path d="M1992 1785 2125 1785 2125 1823 1992 1823Z" stroke="#666666" stroke-width="1.88711" stroke-linecap="butt" stroke-linejoin="miter" stroke-miterlimit="8" stroke-opacity="1" fill="#3285DD" fill-rule="evenodd" fill-opacity="1"/><path d="M1992 1842 2125 1842 2125 1880 1992 1880Z" stroke="#666666" stroke-width="1.88711" stroke-linecap="butt" stroke-linejoin="miter" stroke-miterlimit="8" stroke-opacity="1" fill="#3285DD" fill-rule="evenodd" fill-opacity="1"/><path d="M1992 1672 2078 1672 2078 1710 1992 1710Z" stroke="#666666" stroke-width="1.88711" stroke-linecap="butt" stroke-linejoin="miter" stroke-miterlimit="8" stroke-opacity="1" fill="#3285DD" fill-rule="evenodd" fill-opacity="1"/><path d="M1955 1709.42 1955 1672 1869.79 1672C1864.77 1672 1859.95 1673.97 1856.4 1677.48L1828 1705.54 1854.78 1732 1877.64 1709.42 1955 1709.42Z" stroke="#666666" stroke-width="1.88711" stroke-linecap="butt" stroke-linejoin="miter" stroke-miterlimit="8" stroke-opacity="1" fill="#3285DD" fill-rule="evenodd" fill-opacity="1"/><path d="M1926 1927 2144 1927 2144 1965 1926 1965Z" stroke="#666666" stroke-width="1.88711" stroke-linecap="butt" stroke-linejoin="miter" stroke-miterlimit="8" stroke-opacity="1" fill="#3285DD" fill-rule="evenodd" fill-opacity="1"/><path d="M1870 1993 2144 1993 2144 2031 1870 2031Z" stroke="#666666" stroke-width="1.88711" stroke-linecap="butt" stroke-linejoin="miter" stroke-miterlimit="8" stroke-opacity="1" fill="#3285DD" fill-rule="evenodd" fill-opacity="1"/></g></g></svg>