<svg width="83" height="83" xmlns="http://www.w3.org/2000/svg" xmlns:xlink="http://www.w3.org/1999/xlink" xml:space="preserve" overflow="hidden"><g transform="translate(-3611 -2181)"><g><path d="M3622.75 2184.5C3622.27 2184.5 3621.82 2184.75 3621.59 2185.17 3614.8 2196.82 3614.8 2211.18 3621.59 2222.83 3621.94 2223.46 3622.74 2223.68 3623.37 2223.33 3624.01 2222.99 3624.23 2222.19 3623.88 2221.57 3623.87 2221.56 3623.87 2221.55 3623.86 2221.53 3617.54 2210.68 3617.54 2197.32 3623.86 2186.46 3624.23 2185.85 3624.03 2185.05 3623.41 2184.68 3623.21 2184.57 3622.98 2184.5 3622.75 2184.5ZM3686.22 2184.5C3685.49 2184.53 3684.93 2185.13 3684.96 2185.85 3684.96 2186.07 3685.03 2186.28 3685.14 2186.46 3691.46 2197.32 3691.46 2210.68 3685.14 2221.53 3684.77 2222.15 3684.97 2222.95 3685.59 2223.32 3686.21 2223.68 3687.02 2223.48 3687.39 2222.87 3687.4 2222.86 3687.4 2222.84 3687.41 2222.83 3694.2 2211.18 3694.2 2196.82 3687.41 2185.17 3687.17 2184.74 3686.71 2184.48 3686.22 2184.5ZM3637.74 2190.99C3637.27 2190.99 3636.82 2191.25 3636.59 2191.66 3632.14 2199.29 3632.14 2208.71 3636.59 2216.34 3636.94 2216.97 3637.74 2217.19 3638.37 2216.84 3639 2216.49 3639.23 2215.7 3638.88 2215.07 3638.87 2215.06 3638.87 2215.05 3638.86 2215.04 3634.88 2208.21 3634.88 2199.79 3638.86 2192.96 3639.23 2192.34 3639.03 2191.55 3638.41 2191.18 3638.21 2191.06 3637.98 2191 3637.74 2190.99ZM3671.22 2191C3670.49 2191.02 3669.93 2191.63 3669.96 2192.34 3669.97 2192.56 3670.03 2192.77 3670.14 2192.96 3674.12 2199.79 3674.12 2208.21 3670.14 2215.04 3669.77 2215.66 3669.97 2216.45 3670.59 2216.82 3671.22 2217.19 3672.02 2216.99 3672.39 2216.37 3672.4 2216.36 3672.4 2216.35 3672.41 2216.34 3676.86 2208.71 3676.86 2199.29 3672.41 2191.66 3672.17 2191.23 3671.71 2190.98 3671.22 2191Z" stroke="#666666" stroke-width="0.948425" stroke-linecap="butt" stroke-linejoin="miter" stroke-miterlimit="8" stroke-opacity="1" fill="#666666" fill-rule="evenodd" fill-opacity="1"/><path d="M3655 2197.5C3649.92 2197.5 3645.77 2201.65 3645.77 2206.74 3645.77 2211.25 3649.03 2215.02 3653.31 2215.82L3640.55 2261.83C3640.35 2262.53 3640.77 2263.26 3641.47 2263.45 3641.89 2263.57 3642.35 2263.47 3642.69 2263.17L3655 2252.38 3667.31 2263.17C3667.86 2263.65 3668.69 2263.6 3669.17 2263.05 3669.47 2262.71 3669.57 2262.26 3669.45 2261.83L3656.69 2215.82C3660.97 2215.02 3664.23 2211.25 3664.23 2206.74 3664.23 2201.65 3660.08 2197.5 3655 2197.5ZM3655 2200.14C3658.66 2200.14 3661.59 2203.08 3661.59 2206.74 3661.59 2210.4 3658.66 2213.34 3655 2213.34 3651.34 2213.34 3648.41 2210.4 3648.41 2206.74 3648.41 2203.08 3651.34 2200.14 3655 2200.14ZM3655 2202.12C3654.64 2202.11 3654.34 2202.41 3654.33 2202.77 3654.33 2203.14 3654.62 2203.44 3654.98 2203.44L3655 2203.44C3656.83 2203.44 3658.3 2204.91 3658.3 2206.74 3658.29 2207.1 3658.58 2207.4 3658.95 2207.41 3659.31 2207.41 3659.61 2207.12 3659.61 2206.76L3659.61 2206.74C3659.61 2204.2 3657.54 2202.12 3655 2202.12ZM3655 2219.59 3661.54 2243.15 3655 2248.88 3648.47 2243.15 3655 2219.59ZM3647.68 2245.97 3653 2250.63 3644.27 2258.28 3647.68 2245.97ZM3662.32 2245.97 3665.73 2258.28 3657 2250.63 3662.32 2245.97Z" stroke="#3285DD" stroke-width="0.948425" stroke-linecap="butt" stroke-linejoin="miter" stroke-miterlimit="8" stroke-opacity="1" fill="#3285DD" fill-rule="evenodd" fill-opacity="1"/></g></g></svg>