<svg width="32" height="32" viewBox="0 0 32 32" fill="none" xmlns="http://www.w3.org/2000/svg">
<rect x="2" y="28" width="19" height="28" rx="2" transform="rotate(-90 2 28)" stroke="#666666" stroke-width="1.5"/>
<path d="M2.5 18.5H10.5" stroke="#666666" stroke-width="1.5" stroke-linecap="round"/>
<path d="M22 18.5H30" stroke="#666666" stroke-width="1.5" stroke-linecap="round"/>
<path d="M13 18C13 16.8954 13.8954 16 15 16H17C18.1046 16 19 16.8954 19 18V19C19 20.1046 18.1046 21 17 21H15C13.8954 21 13 20.1046 13 19V18Z" stroke="#1885DD" stroke-width="1.5"/>
<path d="M11 9L11 6C11 4.89543 11.8954 4 13 4L19 4C20.1046 4 21 4.89543 21 6L21 9L11 9Z" stroke="#666666" stroke-width="1.5"/>
</svg>
