<svg width="32" height="32" viewBox="0 0 32 32" fill="none" xmlns="http://www.w3.org/2000/svg">
<path d="M29 8C29.5523 8 30 8.44772 30 9L30 23C30 23.5523 29.5523 24 29 24L3 24C2.44771 24 2 23.5523 2 23L2 9C2 8.44771 2.44772 8 3 8L29 8Z" stroke="#666666" stroke-width="1.5"/>
<path d="M16.6239 15.5268L16.6239 15.5267C15.8571 15.3185 15.3389 15.1181 15.0625 14.9276C14.7905 14.7401 14.658 14.4986 14.658 14.2C14.658 13.9171 14.7771 13.6948 15.0197 13.5288C15.2643 13.3613 15.5989 13.275 16.0284 13.275C16.3832 13.275 16.6654 13.3347 16.8781 13.4502C16.9943 13.5133 17.0979 13.5973 17.189 13.7027C17.3386 13.8759 17.5799 13.9862 17.8083 13.9C17.9391 13.8507 18.0358 13.7484 18.0768 13.63C18.118 13.5107 18.1025 13.3749 18.0089 13.2648C17.8802 13.1135 17.7287 12.9801 17.5546 12.8646C17.2501 12.6625 16.8901 12.5389 16.4761 12.4925V11.9261C16.4761 11.6632 16.263 11.45 16 11.45C15.737 11.45 15.5239 11.6632 15.5239 11.9261V12.4916C14.996 12.5402 14.5623 12.7173 14.2261 13.0257C13.8796 13.3435 13.7057 13.7402 13.7057 14.2125C13.7057 14.7008 13.8791 15.11 14.2257 15.4364C14.57 15.7607 15.0875 16.0178 15.7732 16.2106C16.4926 16.4188 16.9744 16.6209 17.2266 16.8147C17.4732 17.004 17.5977 17.2718 17.5977 17.625C17.5977 17.9582 17.4594 18.2178 17.1792 18.4087C16.896 18.6016 16.5325 18.7 16.0852 18.7C15.6669 18.7 15.3122 18.604 15.0186 18.4143C14.8247 18.2889 14.6603 18.1201 14.5255 17.9067C14.392 17.6954 14.1326 17.5682 13.887 17.657C13.6405 17.746 13.4989 18.0262 13.6345 18.2651C13.7826 18.5259 13.976 18.7526 14.2143 18.9451C14.5591 19.2236 14.9964 19.4054 15.5239 19.4926V20.0739C15.5239 20.3368 15.737 20.55 16 20.55C16.263 20.55 16.4761 20.3368 16.4761 20.0739V19.506C17.1426 19.4107 17.6552 19.2038 18.0082 18.8806C18.3701 18.5493 18.55 18.1124 18.55 17.575C18.55 17.0638 18.3923 16.6366 18.0749 16.2971C17.7584 15.9586 17.2728 15.7031 16.6239 15.5268Z" fill="#1885DD" stroke="#1885DD" stroke-width="0.1"/>
<circle cx="16" cy="16" r="6" stroke="#666666" stroke-width="1.2"/>
<rect x="5.14165" y="16.4543" width="1.9198" height="1.9198" transform="rotate(-45.4616 5.14165 16.4543)" stroke="#666666"/>
<rect x="24.7071" y="16.4543" width="1.9198" height="1.9198" transform="rotate(-45.4616 24.7071 16.4543)" stroke="#666666"/>
</svg>
