<svg width="32" height="32" viewBox="0 0 32 32" fill="none" xmlns="http://www.w3.org/2000/svg">
<path d="M29 7H25.292C24.828 7 24.4249 7.31924 24.3186 7.77096L23.6765 10.5M7 24H19.708C20.172 24 20.5751 23.6808 20.6814 23.229L21.4412 20M23.6765 10.5L22.5588 15.25M23.6765 10.5H18.8382M21.4412 20L22.5588 15.25M21.4412 20H17.7206M22.5588 15.25H5.25M5.25 15.25L4.33013 11.7545C4.16327 11.1204 4.64153 10.5 5.2972 10.5H9M5.25 15.25L6.30381 19.2545C6.41942 19.6938 6.81662 20 7.27089 20H10.5M9 10.5L10.5 20M9 10.5H14M10.5 20H14M14 10.5V20M14 10.5H18.8382M14 20H17.7206M18.8382 10.5L17.7206 20" stroke="#666666" stroke-width="1.5" stroke-linecap="round"/>
<circle cx="9.5" cy="26" r="1.5" fill="#666666"/>
<circle cx="18.5" cy="26" r="1.5" fill="#666666"/>
<path d="M25 6H30C30.5523 6 31 6.44772 31 7C31 7.55228 30.5523 8 30 8H25V6Z" fill="#1885DD"/>
</svg>
