<svg width="242" height="234" xmlns="http://www.w3.org/2000/svg" xmlns:xlink="http://www.w3.org/1999/xlink" xml:space="preserve" overflow="hidden"><g transform="translate(-2695 -1136)"><g><path d="M2739.05 1192.72 2750.57 1192.72M2739.05 1227.39 2750.57 1227.39M2796.63 1227.39 2808.15 1227.39M2796.63 1262.06 2808.15 1262.06M2739.05 1262.06 2750.57 1262.06M2796.63 1192.72 2808.15 1192.72M2796.63 1354.5 2750.57 1354.5M2796.63 1354.5 2750.57 1354.5M2750.57 1354.5 2704.5 1354.5 2704.5 1164.99C2704.5 1158.52 2704.5 1155.28 2705.76 1152.81 2706.86 1150.64 2708.62 1148.87 2710.79 1147.76 2713.25 1146.5 2716.48 1146.5 2722.93 1146.5L2824.27 1146.5C2830.72 1146.5 2833.94 1146.5 2836.41 1147.76 2838.57 1148.87 2840.34 1150.64 2841.44 1152.81 2842.7 1155.28 2842.7 1158.52 2842.7 1164.99L2844.5 1201.61" stroke="#666666" stroke-width="17.1875" stroke-linecap="round" stroke-linejoin="round" stroke-miterlimit="10" stroke-opacity="1" fill="none" fill-rule="evenodd"/><path d="M2875.93 1243.68C2863.27 1243.68 2853.01 1253.94 2853.01 1266.61 2853.01 1279.27 2863.27 1289.53 2875.93 1289.53 2888.6 1289.53 2898.86 1279.27 2898.86 1266.61 2898.86 1253.94 2888.6 1243.68 2875.93 1243.68ZM2877 1227C2897.99 1227 2915 1244.01 2915 1265 2915 1285.99 2897.99 1303 2877 1303 2856.01 1303 2839 1285.99 2839 1265 2839 1244.01 2856.01 1227 2877 1227Z" fill="#3285DD" fill-rule="evenodd" fill-opacity="1"/><path d="M2875.48 1322.47C2854.63 1322.59 2836.97 1333.79 2833.76 1348.92 2833.76 1350.25 2834.28 1353.48 2840.76 1353.48L2911.24 1353.48C2917.72 1353.48 2918.24 1350.63 2918.24 1348.92 2915.92 1333.75 2898.34 1322.32 2877.55 1322.47ZM2875.29 1310 2878.13 1310C2906.68 1309.73 2930.81 1331.09 2934 1359.46 2934 1362.66 2933.29 1368 2924.39 1368L2827.61 1368C2818.71 1368 2818 1361.95 2818 1359.46 2822.41 1331.17 2846.66 1310.24 2875.29 1310Z" fill="#3285DD" fill-rule="evenodd" fill-opacity="1"/></g></g></svg>