<svg width="32" height="32" viewBox="0 0 32 32" fill="none" xmlns="http://www.w3.org/2000/svg">
<g clip-path="url(#clip0_2157_2880)">
<path d="M6 5L7.64831 6.69679C7.83661 6.89062 8.09534 7 8.36559 7H20.6344C20.9047 7 21.1634 6.89062 21.3517 6.69679L23 5" stroke="#666666" stroke-width="1.5" stroke-linecap="round"/>
<path d="M14.5 7V26" stroke="#666666" stroke-width="1.5" stroke-linecap="round"/>
<path d="M28.8935 29.5811C29.2498 29.2853 29.5468 28.9631 29.7836 28.6143C30.0483 28.2244 29.7937 27.7422 29.366 27.6321C29.0796 27.5583 28.7948 27.7047 28.646 27.9428C28.3185 28.4666 27.8288 28.9104 27.1718 29.2723C26.3691 29.7145 25.5172 29.9352 24.6149 29.9352C23.7124 29.9352 22.8782 29.7225 22.1105 29.2972C21.3584 28.8551 20.7401 28.2633 20.2549 27.5209C19.8432 26.8772 19.5822 26.165 19.472 25.3832C19.4488 25.2184 19.5812 25.0703 19.7573 25.0703H30.443C30.7939 25.0703 31.1 24.8033 31.1 24.4397C31.1 23.265 30.8147 22.1785 30.2439 21.1822C29.6734 20.1863 28.8864 19.3941 27.8844 18.8066C26.8967 18.2014 25.7633 17.9 24.4872 17.9C23.2445 17.9 22.1199 18.2017 21.1159 18.8064C20.1139 19.3939 19.3268 20.186 18.7562 21.1819C18.1851 22.1626 17.9 23.2493 17.9 24.4397C17.9 25.6461 18.185 26.7564 18.7557 27.769L18.7557 27.769L18.7564 27.7701C19.3437 28.7815 20.139 29.5896 21.1409 30.1933L21.1416 30.1936C22.1626 30.7983 23.3042 31.1 24.5639 31.1C25.3918 31.1 26.1778 30.9696 26.9212 30.7085L26.9223 30.708C27.6812 30.4311 28.3387 30.0558 28.8935 29.5811ZM28.8935 29.5811C28.8937 29.5809 28.8939 29.5808 28.8941 29.5806L28.8291 29.5046L28.8929 29.5816C28.8931 29.5814 28.8933 29.5813 28.8935 29.5811ZM28.8462 21.4774L28.8461 21.4774L28.8475 21.4796C29.2599 22.1108 29.5213 22.8227 29.631 23.6169C29.6538 23.7818 29.5213 23.9297 29.3453 23.9297H19.7062C19.5302 23.9297 19.3976 23.7816 19.4205 23.6165C19.5286 22.8364 19.7816 22.1321 20.1789 21.5023L20.1789 21.5023L20.1794 21.5015C20.6476 20.7436 21.2569 20.1527 22.008 19.7271C22.7583 19.302 23.5924 19.0889 24.5128 19.0889C25.4331 19.0889 26.2673 19.302 27.0175 19.7271L27.0175 19.7271L27.0189 19.7279C27.7693 20.1373 28.3782 20.7198 28.8462 21.4774Z" fill="#1885DD" stroke="#1885DD" stroke-width="0.2"/>
<path fill-rule="evenodd" clip-rule="evenodd" d="M5 1.25C3.48122 1.25 2.25 2.48122 2.25 4V27C2.25 28.5188 3.48122 29.75 5 29.75H18.4378C17.9747 29.3019 17.5655 28.7983 17.221 28.25H5C4.30964 28.25 3.75 27.6904 3.75 27V4C3.75 3.30964 4.30964 2.75 5 2.75H24C24.6904 2.75 25.25 3.30964 25.25 4V16.0971C25.7682 16.1784 26.2699 16.3094 26.75 16.4852V4C26.75 2.48122 25.5188 1.25 24 1.25H5Z" fill="#666666"/>
</g>
<defs>
<clipPath id="clip0_2157_2880">
<rect width="32" height="32" fill="white"/>
</clipPath>
</defs>
</svg>
