<svg width="32" height="32" viewBox="0 0 32 32" fill="none" xmlns="http://www.w3.org/2000/svg">
<g clip-path="url(#clip0_2157_2757)">
<path fill-rule="evenodd" clip-rule="evenodd" d="M8.75 8.25C8.33579 8.25 8 8.58579 8 9C8 9.41421 8.33579 9.75 8.75 9.75H20.75C21.1642 9.75 21.5 9.41421 21.5 9C21.5 8.58579 21.1642 8.25 20.75 8.25H8.75ZM8.75 12.25C8.33579 12.25 8 12.5858 8 13C8 13.4142 8.33579 13.75 8.75 13.75H20.75C21.1642 13.75 21.5 13.4142 21.5 13C21.5 12.5858 21.1642 12.25 20.75 12.25H8.75ZM8 17C8 16.5858 8.33579 16.25 8.75 16.25H15.75C16.1642 16.25 16.5 16.5858 16.5 17C16.5 17.4142 16.1642 17.75 15.75 17.75H8.75C8.33579 17.75 8 17.4142 8 17ZM8.75 20.25C8.33579 20.25 8 20.5858 8 21C8 21.4142 8.33579 21.75 8.75 21.75H13.75C14.1642 21.75 14.5 21.4142 14.5 21C14.5 20.5858 14.1642 20.25 13.75 20.25H8.75Z" fill="#666666"/>
<path d="M27.8935 28.5811C28.2498 28.2853 28.5468 27.9631 28.7836 27.6143C29.0483 27.2244 28.7937 26.7422 28.366 26.6321C28.0796 26.5583 27.7948 26.7047 27.646 26.9428C27.3185 27.4666 26.8288 27.9104 26.1718 28.2723C25.3691 28.7145 24.5172 28.9352 23.6149 28.9352C22.7124 28.9352 21.8782 28.7225 21.1105 28.2972C20.3584 27.8551 19.7401 27.2633 19.2549 26.5209C18.8432 25.8772 18.5822 25.165 18.472 24.3832C18.4488 24.2184 18.5812 24.0703 18.7573 24.0703H29.443C29.7939 24.0703 30.1 23.8033 30.1 23.4397C30.1 22.265 29.8147 21.1785 29.2439 20.1822C28.6734 19.1863 27.8864 18.3941 26.8844 17.8066C25.8967 17.2014 24.7633 16.9 23.4872 16.9C22.2445 16.9 21.1199 17.2017 20.1159 17.8064C19.1139 18.3939 18.3268 19.186 17.7562 20.1819C17.1851 21.1626 16.9 22.2493 16.9 23.4397C16.9 24.6461 17.185 25.7564 17.7557 26.769L17.7557 26.769L17.7564 26.7701C18.3437 27.7815 19.139 28.5896 20.1409 29.1933L20.1416 29.1936C21.1626 29.7983 22.3042 30.1 23.5639 30.1C24.3918 30.1 25.1778 29.9696 25.9212 29.7085L25.9223 29.708C26.6812 29.4311 27.3387 29.0558 27.8935 28.5811ZM27.8935 28.5811C27.8937 28.5809 27.8939 28.5808 27.8941 28.5806L27.8291 28.5046L27.8929 28.5816C27.8931 28.5814 27.8933 28.5813 27.8935 28.5811ZM27.8462 20.4774L27.8461 20.4774L27.8475 20.4796C28.2599 21.1108 28.5213 21.8227 28.631 22.6169C28.6538 22.7818 28.5213 22.9297 28.3453 22.9297H18.7062C18.5302 22.9297 18.3976 22.7816 18.4205 22.6165C18.5286 21.8364 18.7816 21.1321 19.1789 20.5023L19.1789 20.5023L19.1794 20.5015C19.6476 19.7436 20.2569 19.1527 21.008 18.7271C21.7583 18.302 22.5924 18.0889 23.5128 18.0889C24.4331 18.0889 25.2673 18.302 26.0175 18.7271L26.0175 18.7271L26.0189 18.7279C26.7693 19.1373 27.3782 19.7198 27.8462 20.4774Z" fill="#1885DD" stroke="#1885DD" stroke-width="0.2"/>
</g>
<path fill-rule="evenodd" clip-rule="evenodd" d="M5 1.25C3.48122 1.25 2.25 2.48122 2.25 4V27C2.25 28.5188 3.48122 29.75 5 29.75H18.4378C17.9747 29.3019 17.5655 28.7983 17.221 28.25H5C4.30964 28.25 3.75 27.6904 3.75 27V4C3.75 3.30964 4.30964 2.75 5 2.75H24C24.6904 2.75 25.25 3.30964 25.25 4V16.0971C25.7682 16.1784 26.2699 16.3094 26.75 16.4852V4C26.75 2.48122 25.5188 1.25 24 1.25H5Z" fill="#666666"/>
<defs>
<clipPath id="clip0_2157_2757">
<rect width="32" height="32" fill="white"/>
</clipPath>
</defs>
</svg>
