<svg width="32" height="32" viewBox="0 0 32 32" fill="none" xmlns="http://www.w3.org/2000/svg">
<g clip-path="url(#clip0_2157_190)">
<path d="M2 6C2 4.89543 2.89543 4 4 4H28C29.1046 4 30 4.89543 30 6V22C30 23.1046 29.1046 24 28 24H4C2.89543 24 2 23.1046 2 22V6Z" stroke="#666666" stroke-width="1.5"/>
<path d="M2 5C2 4.44772 2.43228 4 2.96552 4H29.0345C29.5677 4 30 4.44772 30 5V23C30 23.5523 29.5677 24 29.0345 24H2.96552C2.43228 24 2 23.5523 2 23V5Z" stroke="#666666" stroke-width="1.5"/>
<path d="M9 29H24" stroke="#666666" stroke-width="1.5" stroke-linecap="round"/>
<path d="M16 29L16 24" stroke="#666666" stroke-width="1.5" stroke-linecap="round"/>
<path fill-rule="evenodd" clip-rule="evenodd" d="M18.2 7.2H19.8V14.6453C20.2187 14.46 20.6195 14.2696 21 14.076V7.2V6H19.8H18.2H17V7.2V15.7109C17.1435 15.6644 17.2876 15.6166 17.4322 15.5674C17.6923 15.4789 17.9484 15.3878 18.2 15.2944V7.2ZM18.2 16.3586C18.0527 16.4113 17.9041 16.4631 17.7544 16.5141C17.5016 16.6001 17.25 16.6821 17 16.7601V17.7109C17.1435 17.6644 17.2876 17.6166 17.4322 17.5674C17.6923 17.4789 17.9484 17.3878 18.2 17.2944V16.3586ZM16 16.015V11.2V10H14.8H13.2H12V11.2V16.8075C12.3816 16.7704 12.7827 16.7176 13.2 16.6493V11.2H14.8V16.3277C15.1917 16.2352 15.5924 16.131 16 16.015ZM14.8 17.3541C15.1926 17.2651 15.5933 17.1648 16 17.0533V18.015C15.5924 18.131 15.1917 18.2352 14.8 18.3277V17.3541ZM13.2 17.662C12.7849 17.7268 12.3839 17.7768 12 17.8119V18.8075C12.3816 18.7704 12.7827 18.7176 13.2 18.6493V17.662ZM21 15.1921C20.6155 15.3778 20.2148 15.5592 19.8 15.735V16.6453C20.2187 16.46 20.6195 16.2696 21 16.076V15.1921ZM18.2 19.8V18.3586C18.0527 18.4113 17.9041 18.4631 17.7544 18.5141C17.5016 18.6001 17.25 18.6821 17 18.7601V19.8V21H18.2H19.8H21V19.8V17.1921C20.6155 17.3778 20.2148 17.5592 19.8 17.735V19.8H18.2ZM16 19.0533C15.5933 19.1648 15.1926 19.2651 14.8 19.3541V19.8H13.2V19.662C12.7849 19.7268 12.3839 19.7768 12 19.8119V21H13.2H14.8H16V19.8V19.0533Z" fill="#666666"/>
<path d="M10.7326 13.7782C8.64383 15.0483 7.45034 16.3718 7.76654 17.3008C8.28614 18.8275 12.6857 18.711 17.5933 17.0407C22.5008 15.3704 26.0579 12.7788 25.5383 11.2521C25.2791 10.4904 24.0538 10.1377 22.2815 10.183" stroke="#1885DD" stroke-width="1.5" stroke-linecap="round"/>
</g>
<defs>
<clipPath id="clip0_2157_190">
<rect width="32" height="32" fill="white"/>
</clipPath>
</defs>
</svg>
