<svg width="32" height="32" viewBox="0 0 32 32" fill="none" xmlns="http://www.w3.org/2000/svg">
<g clip-path="url(#clip0_2157_2795)">
<circle cx="23.5" cy="20" r="2.5" stroke="#1885DD" stroke-width="1.2"/>
<circle cx="23.5" cy="10.5" r="2.5" stroke="#1885DD" stroke-width="1.2"/>
<path d="M2 7C2 5.89543 2.89543 5 4 5H28C29.1046 5 30 5.89543 30 7V23C30 24.1046 29.1046 25 28 25H4C2.89543 25 2 24.1046 2 23V7Z" stroke="#666666" stroke-width="1.5"/>
<path d="M2 6C2 5.44772 2.43228 5 2.96552 5H29.0345C29.5677 5 30 5.44772 30 6V24C30 24.5523 29.5677 25 29.0345 25H2.96552C2.43228 25 2 24.5523 2 24V6Z" stroke="#666666" stroke-width="1.5"/>
<path d="M15 24.824C15 21.2828 12.25 19.328 9.5 19.328C6.75 19.328 4 21.2828 4 24.824" stroke="#666666" stroke-width="1.5"/>
<path d="M12.5081 15.8472C12.5081 17.5572 11.1207 18.9444 9.40811 18.9444C7.69551 18.9444 6.30811 17.5572 6.30811 15.8472C6.30811 14.1372 7.69551 12.75 9.40811 12.75C11.1207 12.75 12.5081 14.1372 12.5081 15.8472Z" stroke="#666666" stroke-width="1.5"/>
<path d="M17 5L17 25" stroke="#666666" stroke-width="1.4"/>
<path d="M13 25V30M20 25V30" stroke="#666666" stroke-width="1.5"/>
<path d="M9 30H24" stroke="#666666" stroke-width="1.5" stroke-linecap="round"/>
<path d="M17 15L30 15" stroke="#666666" stroke-width="1.5"/>
</g>
<defs>
<clipPath id="clip0_2157_2795">
<rect width="32" height="32" fill="white"/>
</clipPath>
</defs>
</svg>
