<svg width="32" height="32" viewBox="0 0 32 32" fill="none" xmlns="http://www.w3.org/2000/svg">
<rect x="3.75" y="3.75" width="24.5" height="24.5" rx="3.25" stroke="#666666" stroke-width="1.5"/>
<path d="M11.4 9C11.1791 9 11 9.17909 11 9.4V24.6C11 24.8209 11.1791 25 11.4 25H12.429C12.6499 25 12.829 24.8209 12.829 24.6V18.8566C12.829 18.6357 13.0081 18.4566 13.229 18.4566H17.4907C21.1487 18.4566 23 16.8655 23 13.7059C23 10.5686 21.171 9 17.513 9H11.4ZM12.829 10.991C12.829 10.7701 13.0081 10.591 13.229 10.591H17.4015C18.6729 10.591 19.6097 10.8375 20.2342 11.3754C20.8587 11.8459 21.171 12.6303 21.171 13.7059C21.171 14.7815 20.8587 15.5658 20.2565 16.0812C19.632 16.5966 18.6952 16.8655 17.4015 16.8655H13.229C13.0081 16.8655 12.829 16.6865 12.829 16.4655V10.991Z" fill="#1885DD"/>
</svg>
