<svg width="32" height="32" viewBox="0 0 32 32" fill="none" xmlns="http://www.w3.org/2000/svg">
<g clip-path="url(#clip0_2157_3159)">
<path d="M15.5596 14.3291L15.5596 14.3291C14.563 14.0033 13.8877 13.6894 13.5262 13.3895C13.1688 13.0929 12.9903 12.7062 12.9903 12.225C12.9903 11.769 13.151 11.4121 13.4707 11.1487C13.7917 10.8842 14.2286 10.7493 14.7869 10.7493C15.2484 10.7493 15.6165 10.8426 15.8952 11.0248C16.0433 11.1216 16.1762 11.2498 16.2937 11.4103C16.4919 11.681 16.8491 11.8411 17.1685 11.6961C17.4696 11.5595 17.6207 11.1978 17.4368 10.9087C17.2544 10.6219 17.0308 10.3727 16.7663 10.1614C16.369 9.84418 15.8977 9.65039 15.354 9.57932V8.55398C15.354 8.22041 15.0836 7.95 14.75 7.95C14.4164 7.95 14.146 8.22041 14.146 8.55398V9.57823C13.4537 9.65194 12.8875 9.92939 12.4509 10.4115C12.0046 10.9041 11.7824 11.5163 11.7824 12.2446C11.7824 12.9984 12.0043 13.63 12.4504 14.1358C12.8951 14.6401 13.5655 15.0416 14.4567 15.3432C15.3915 15.669 16.0199 15.9857 16.3503 16.2911C16.6762 16.5924 16.842 17.021 16.842 17.5845C16.842 18.1191 16.6566 18.5345 16.2879 18.8368C15.9169 19.1411 15.4425 19.2949 14.8608 19.2949C14.3166 19.2949 13.8538 19.1446 13.4696 18.8458C13.2139 18.6468 12.9968 18.3779 12.8191 18.0375C12.6546 17.7222 12.2787 17.5433 11.9429 17.6894C11.657 17.8137 11.4989 18.1372 11.6243 18.431C11.8219 18.8939 12.092 19.2921 12.4346 19.6253C12.8832 20.0613 13.4544 20.3464 14.146 20.4816V21.5294C14.146 21.8629 14.4164 22.1333 14.75 22.1333C15.0836 22.1333 15.354 21.8629 15.354 21.5294V20.5022C16.2273 20.3542 16.8958 20.03 17.3538 19.5252C17.8193 19.0121 18.05 18.3374 18.05 17.5062C18.05 16.715 17.8475 16.0548 17.4393 15.5293C17.0313 15.0041 16.4029 14.605 15.5596 14.3291Z" fill="#1885DD" stroke="#1885DD" stroke-width="0.1"/>
<circle cx="14.5" cy="14.5" r="10.5" stroke="#666666" stroke-width="1.5"/>
<path d="M22 22L28 28" stroke="#666666" stroke-width="1.5" stroke-linecap="round"/>
</g>
<defs>
<clipPath id="clip0_2157_3159">
<rect width="32" height="32" fill="white"/>
</clipPath>
</defs>
</svg>
