<svg width="32" height="32" viewBox="0 0 32 32" fill="none" xmlns="http://www.w3.org/2000/svg">
<g clip-path="url(#clip0_2157_1421)">
<rect x="2.75" y="19.3999" width="2.4" height="9.6" stroke="#666666" stroke-width="1.5"/>
<path d="M12.35 24.2H17.75C18.7441 24.2 19.55 23.3941 19.55 22.4V22.4C19.55 21.4058 18.7441 20.6 17.75 20.6H14.75L12.8141 19.3094C11.8064 18.6376 10.4936 18.6376 9.4859 19.3094L7.55 20.6H5.75" stroke="#666666" stroke-width="1.5" stroke-linecap="round"/>
<path d="M5.75 27.8L17.2683 28.8969C17.9672 28.9635 18.6673 28.7828 19.2468 28.3864L28.3625 22.1493C29.1418 21.6161 29.3709 20.568 28.885 19.7583V19.7583C28.3714 18.9023 27.2555 18.634 26.4089 19.1631L18.35 24.2" stroke="#666666" stroke-width="1.5" stroke-linecap="round"/>
<path d="M18.7452 10.4793L18.7451 10.4793C17.8248 10.2478 17.2012 10.0248 16.8678 9.81202C16.5388 9.602 16.3795 9.33199 16.3795 9C16.3795 8.68555 16.5226 8.43682 16.8165 8.25057C17.1126 8.06296 17.5169 7.96667 18.0341 7.96667C18.4613 7.96667 18.8022 8.03318 19.0599 8.16273C19.2031 8.23472 19.3303 8.33091 19.4415 8.45158C19.6152 8.64004 19.8826 8.76062 20.1386 8.67122C20.2978 8.61563 20.4145 8.49345 20.4617 8.35256C20.5093 8.21057 20.4859 8.04979 20.3656 7.92454C20.2197 7.77271 20.0506 7.63786 19.8586 7.5199C19.4926 7.29514 19.0598 7.15807 18.5614 7.10735V6.51136C18.5614 6.20133 18.31 5.95 18 5.95C17.69 5.95 17.4386 6.20133 17.4386 6.51136V7.10649C16.8038 7.15922 16.283 7.3554 15.8796 7.698C15.4655 8.04967 15.2568 8.48931 15.2568 9.01389C15.2568 9.55635 15.4649 10.0098 15.8791 10.371C16.2907 10.73 16.9098 11.015 17.7315 11.2289C18.5949 11.4603 19.1751 11.6854 19.4795 11.9019C19.7779 12.114 19.9273 12.4131 19.9273 12.8056C19.9273 13.1759 19.7612 13.4661 19.4222 13.6799C19.08 13.8958 18.6412 14.0056 18.1023 14.0056C17.5981 14.0056 17.1699 13.8983 16.8154 13.6863C16.5813 13.5462 16.3832 13.3576 16.2211 13.1199C16.0619 12.8866 15.7715 12.7446 15.4928 12.8379C15.1922 12.9385 15.0198 13.2809 15.1993 13.5606C15.3727 13.831 15.5948 14.0672 15.8649 14.2692C16.2787 14.5786 16.804 14.7804 17.4386 14.8765V15.4886C17.4386 15.7987 17.69 16.05 18 16.05C18.31 16.05 18.5614 15.7987 18.5614 15.4886V14.8912C19.3633 14.7861 19.9786 14.5565 20.4017 14.1979C20.834 13.8313 21.05 13.347 21.05 12.75C21.05 12.1821 20.8607 11.7084 20.4812 11.3325C20.103 10.958 19.5223 10.6748 18.7452 10.4793Z" fill="#1885DD" stroke="#1885DD" stroke-width="0.1"/>
<circle cx="18" cy="11" r="7" stroke="#666666" stroke-width="1.5"/>
</g>
<defs>
<clipPath id="clip0_2157_1421">
<rect width="32" height="32" fill="white"/>
</clipPath>
</defs>
</svg>
